<svg width="30" height="24" viewBox="0 0 30 24" fill="none" xmlns="http://www.w3.org/2000/svg">
<path d="M26.745 6.9475L23.34 4.08015C23.445 3.54963 23.61 3.057 23.82 2.62753C23.985 2.29912 24.045 1.92017 23.955 1.5286C23.76 0.619129 22.71 -0.0124454 21.6 0.000186104C19.215 0.0380805 17.1 1.02334 15.75 2.52648H8.25C3.69 2.52648 0 5.63383 0 9.4738C0 12.3159 2.055 18.9221 3.12 22.1558C3.48 23.2421 4.665 24 6.015 24H9C10.65 24 12 22.8632 12 21.4737H15C15 22.8632 16.35 24 18 24H21.015C22.335 24 23.505 23.2674 23.895 22.1937L25.77 16.939L28.98 16.0295C29.2779 15.9448 29.5367 15.7833 29.7197 15.568C29.9028 15.3527 30.0008 15.0944 30 14.8295V8.21065C30 7.51592 29.325 6.9475 28.5 6.9475H26.745ZM15 8.84222H10.5C9.675 8.84222 9 8.27381 9 7.57907C9 6.88434 9.675 6.31593 10.5 6.31593H15C15.825 6.31593 16.5 6.88434 16.5 7.57907C16.5 8.27381 15.825 8.84222 15 8.84222ZM21 11.3685C20.175 11.3685 19.5 10.8001 19.5 10.1054C19.5 9.41064 20.175 8.84222 21 8.84222C21.825 8.84222 22.5 9.41064 22.5 10.1054C22.5 10.8001 21.825 11.3685 21 11.3685Z" fill="#D59F16"/>
</svg>
