<svg xmlns="http://www.w3.org/2000/svg" xmlns:xlink="http://www.w3.org/1999/xlink" viewBox="0 0 203.13 203.38"><defs><style>.cls-1{isolation:isolate;}.cls-2{fill:url(#linear-gradient);}.cls-3{fill:url(#radial-gradient);}.cls-4{fill:url(#linear-gradient-2);}.cls-5{fill:url(#linear-gradient-3);}.cls-6{fill:url(#linear-gradient-4);}.cls-7{fill:url(#linear-gradient-5);}.cls-8{fill:url(#linear-gradient-6);}.cls-9{fill:url(#linear-gradient-7);}.cls-10{fill:url(#linear-gradient-8);}.cls-11{mix-blend-mode:overlay;}.cls-12{fill:#fceb84;}.cls-13{fill:url(#linear-gradient-9);}</style><linearGradient id="linear-gradient" x1="117.84" y1="192.93" x2="17" y2="65.39" gradientUnits="userSpaceOnUse"><stop offset="0" stop-color="#1c542a"/><stop offset="0.06" stop-color="#276830"/><stop offset="0.25" stop-color="#47a041"/><stop offset="0.34" stop-color="#53b648"/><stop offset="0.66" stop-color="#cadf86"/><stop offset="1" stop-color="#1b8341"/></linearGradient><radialGradient id="radial-gradient" cx="-4692.66" cy="1783.48" r="417.66" gradientTransform="matrix(0.3, 0.29, -0.29, 0.3, 2084.75, 838.61)" gradientUnits="userSpaceOnUse"><stop offset="0" stop-color="#9cc93b"/><stop offset="1" stop-color="#09783d"/></radialGradient><linearGradient id="linear-gradient-2" x1="132.81" y1="133.93" x2="146.85" y2="133.93" gradientUnits="userSpaceOnUse"><stop offset="0" stop-color="#09783d"/><stop offset="0.64" stop-color="#156231"/><stop offset="1" stop-color="#1c542a"/></linearGradient><linearGradient id="linear-gradient-3" x1="62.56" y1="62.01" x2="76.58" y2="62.01" xlink:href="#linear-gradient-2"/><linearGradient id="linear-gradient-4" x1="104.63" y1="127.05" x2="143.83" y2="158.47" gradientUnits="userSpaceOnUse"><stop offset="0" stop-color="#09783d"/><stop offset="0.34" stop-color="#258f45"/><stop offset="0.66" stop-color="#09783d"/><stop offset="0.88" stop-color="#156231"/><stop offset="1" stop-color="#1c542a"/></linearGradient><linearGradient id="linear-gradient-5" x1="85.82" y1="18.51" x2="139.2" y2="134.18" gradientUnits="userSpaceOnUse"><stop offset="0" stop-color="#fbd94c"/><stop offset="0.48" stop-color="#fac636"/><stop offset="1" stop-color="#f9ad1a"/></linearGradient><linearGradient id="linear-gradient-6" x1="55.26" y1="32.61" x2="108.65" y2="148.28" xlink:href="#linear-gradient-5"/><linearGradient id="linear-gradient-7" x1="27.69" y1="45.38" x2="66.62" y2="86.53" xlink:href="#linear-gradient-4"/><linearGradient id="linear-gradient-8" x1="70.78" y1="25.45" x2="124.17" y2="141.12" xlink:href="#linear-gradient-5"/><linearGradient id="linear-gradient-9" x1="81.46" y1="86.12" x2="105" y2="104.29" xlink:href="#linear-gradient-4"/></defs><g class="cls-1"><g id="Layer_1" data-name="Layer 1"><path class="cls-2" d="M90.14,197C36,186.74-1.8,134.73,5.86,80.81A93.49,93.49,0,0,1,34,25.76l-4.87,4.63A93.44,93.44,0,0,0,1,85.44c-7.66,53.92,30.09,105.92,84.28,116.17,32,6.06,62.6-3.79,83.86-24L174,173C152.74,193.19,122.15,203,90.14,197Z"/><ellipse class="cls-3" cx="104" cy="99.38" rx="96.84" ry="101.58" transform="translate(-39.85 98.93) rotate(-43.52)"/><path class="cls-4" d="M145.61,126.88a7.25,7.25,0,0,0-5-3.62,6.46,6.46,0,0,0-5.71,1.6,8.42,8.42,0,0,0-2.12,3.12,6.39,6.39,0,0,1,3-.1,7.23,7.23,0,0,1,5,3.63c1.16,2,1.52,4.81,1,8.39a18.64,18.64,0,0,1-1.28,4.84,7.1,7.1,0,0,0,2.83-1.58,8.07,8.07,0,0,0,.69-.82,7,7,0,0,0,.47-.58,8.48,8.48,0,0,0,.56-1c.12-.24.26-.45.38-.71.18-.44.32-.94.47-1.43.08-.25.18-.47.25-.73a24.13,24.13,0,0,0,.5-2.58C147.13,131.69,146.77,128.88,145.61,126.88Z"/><path class="cls-5" d="M75.34,54.94a7.15,7.15,0,0,0-5-3.6,6.45,6.45,0,0,0-5.71,1.58,8.63,8.63,0,0,0-2.12,3.13,6.68,6.68,0,0,1,3-.09,7.13,7.13,0,0,1,5,3.61c1.18,2,1.52,4.81,1,8.4a18.83,18.83,0,0,1-1.28,4.85A7,7,0,0,0,73,71.22a8.16,8.16,0,0,0,.71-.83c.16-.2.33-.37.48-.59a11.26,11.26,0,0,0,.56-1c.12-.24.25-.45.36-.71a15,15,0,0,0,.48-1.43c.07-.24.17-.46.23-.72a23.52,23.52,0,0,0,.5-2.55C76.86,59.75,76.52,57,75.34,54.94Z"/><path class="cls-6" d="M160.36,157.73l-.57.5c-.66.53-1.33,1-2,1.51q-9.56,6.22-22.81,3.7-13.47-2.53-20.69-11.93T109,128.16c.15-1,.34-2.06.56-3,.06-.31.15-.61.22-.92.16-.67.34-1.32.54-2,.1-.33.2-.66.31-1,.21-.6.43-1.19.67-1.76l.36-.88c.3-.64.61-1.27.94-1.88.1-.17.18-.35.28-.52a24.78,24.78,0,0,1,1.41-2.19c.13-.18.28-.34.41-.52.39-.51.79-1,1.22-1.47l.61-.65c.21-.21.41-.44.63-.65l-4.87,4.63q-6.57,6.23-8.16,17.42-2,14,5.22,23.35t20.69,11.94q13.29,2.51,22.82-3.71c.6-.39,1.17-.81,1.73-1.24s1.09-.9,1.6-1.39l4.87-4.62C160.85,157.32,160.6,157.52,160.36,157.73Z"/><path class="cls-7" d="M163.9,116.4q-7.34-9.42-20.6-11.92-13.45-2.55-22.9,3.69a23.85,23.85,0,0,0-3.85,3.21l-.61.65c-.43.47-.83,1-1.22,1.47l-.41.52a24.78,24.78,0,0,0-1.41,2.19l-.28.52c-.33.61-.65,1.23-.94,1.88l-.36.88c-.24.57-.46,1.16-.67,1.76-.1.32-.21.65-.31,1-.2.64-.38,1.29-.54,2-.07.31-.16.61-.22.92-.22,1-.41,2-.56,3q-2,14,5.23,23.35t20.69,11.93q13.27,2.52,22.81-3.7c.71-.47,1.38-1,2-1.51l.57-.5c4.79-4.19,7.76-10.23,8.89-18.18Q171.2,125.83,163.9,116.4Zm-17.28,18.87a24.13,24.13,0,0,1-.5,2.58c-.07.26-.17.48-.25.73-.15.49-.29,1-.47,1.43-.12.26-.26.47-.38.71a9.29,9.29,0,0,1-.56,1,7,7,0,0,1-.47.58,8.07,8.07,0,0,1-.69.82,7.1,7.1,0,0,1-2.83,1.58,6.37,6.37,0,0,1-2.89.1,7.07,7.07,0,0,1-5-3.7c-1.18-2.08-1.5-5-1-8.7a18.48,18.48,0,0,1,1.16-4.47,8.46,8.46,0,0,1,2.12-3.11,6.46,6.46,0,0,1,5.71-1.6,7.25,7.25,0,0,1,5,3.62C146.77,128.88,147.13,131.69,146.62,135.27Z"/><path class="cls-8" d="M93.63,44.47q-7.3-9.4-20.57-11.93Q59.56,30,50.15,36.25a23,23,0,0,0-3.86,3.21c-.21.21-.42.42-.62.65-.42.46-.81,1-1.2,1.45l-.42.54a23.47,23.47,0,0,0-1.42,2.19l-.25.48c-.34.62-.66,1.26-1,1.92-.13.28-.25.58-.37.87q-.35.86-.66,1.77c-.11.32-.22.64-.32,1-.19.64-.37,1.3-.53,2-.08.31-.16.6-.23.92-.21,1-.4,2-.55,3.05q-2,14,5.23,23.33t20.68,12Q77.94,94,87.48,87.8c.71-.47,1.39-1,2-1.51l.57-.5Q97.28,79.54,99,67.63,100.93,53.86,93.63,44.47ZM76.35,63.35a23.52,23.52,0,0,1-.5,2.55c-.07.26-.16.48-.23.73-.15.49-.3,1-.48,1.42-.11.26-.24.47-.36.71a11.26,11.26,0,0,1-.56,1c-.15.22-.32.39-.48.59a8.16,8.16,0,0,1-.71.83,7,7,0,0,1-2.83,1.6,6.29,6.29,0,0,1-2.87.1,7,7,0,0,1-5-3.72c-1.18-2.06-1.5-5-1-8.68a18.24,18.24,0,0,1,1.16-4.47,8.63,8.63,0,0,1,2.12-3.13,6.45,6.45,0,0,1,5.71-1.58,7.15,7.15,0,0,1,5,3.6C76.52,57,76.86,59.75,76.35,63.35Z"/><path class="cls-9" d="M90.09,85.79c-.19.17-.37.34-.57.5-.65.53-1.33,1-2,1.51Q78,94,64.68,91.52,51.19,89,44,79.57T38.77,56.24c.15-1.05.34-2.07.55-3.05.07-.32.15-.61.23-.92.16-.67.34-1.33.53-2,.1-.33.21-.65.32-1,.21-.6.43-1.19.66-1.76.12-.29.24-.59.37-.87.29-.66.62-1.3,1-1.92.09-.16.17-.33.25-.48a23.47,23.47,0,0,1,1.42-2.19c.13-.19.28-.36.42-.54.39-.5.78-1,1.2-1.45.2-.23.41-.44.62-.65s.39-.43.6-.63L42,43.45q-6.54,6.21-8.12,17.41-2,14,5.23,23.34t20.68,12q13.26,2.5,22.8-3.73A24,24,0,0,0,86,89.78l4.87-4.62C90.59,85.38,90.34,85.58,90.09,85.79Z"/><path class="cls-10" d="M149,50.26a38.87,38.87,0,0,0-10.82-5.58L60.37,125.85a17.13,17.13,0,0,0-3.82,6.05,35.18,35.18,0,0,0-1.3,5.78,9.14,9.14,0,0,0,3.43,7.6,28.07,28.07,0,0,0,9.51,5.34l77.95-80.94A41.56,41.56,0,0,0,151,63.92a14.08,14.08,0,0,0,2.36-5.86C153.5,55.15,152,52.56,149,50.26Z"/><g class="cls-11"><path class="cls-12" d="M141.58,145.63a7.1,7.1,0,0,0,2.83-1.58,8.07,8.07,0,0,0,.69-.82,7,7,0,0,0,.48-.58,11.24,11.24,0,0,0,.55-1,8,8,0,0,0,.38-.71c.18-.44.32-.94.48-1.43.07-.25.17-.47.24-.73a24.13,24.13,0,0,0,.5-2.58c.51-3.58.15-6.39-1-8.39a8,8,0,0,0-2.52-2.63,8.78,8.78,0,0,1,1.41,1.74c1.16,2,1.52,4.81,1,8.39a24.13,24.13,0,0,1-.5,2.58c-.07.26-.17.48-.25.73-.15.49-.29,1-.47,1.43-.12.26-.26.47-.38.71a9.29,9.29,0,0,1-.56,1,7,7,0,0,1-.47.58,8.07,8.07,0,0,1-.69.82,7.1,7.1,0,0,1-2.83,1.58,6.37,6.37,0,0,1-2.89.1,6.79,6.79,0,0,1-2.4-1,6.69,6.69,0,0,0,3.51,1.87A6.37,6.37,0,0,0,141.58,145.63Z"/><path class="cls-12" d="M74,53.22a8.47,8.47,0,0,1,1.38,1.72c1.18,2,1.52,4.81,1,8.41a23.52,23.52,0,0,1-.5,2.55c-.07.26-.16.48-.23.73-.15.49-.3,1-.48,1.42-.11.26-.24.47-.36.71a11.26,11.26,0,0,1-.56,1c-.15.22-.32.39-.48.59a8.16,8.16,0,0,1-.71.83,7,7,0,0,1-2.83,1.6,6.29,6.29,0,0,1-2.87.1,6.73,6.73,0,0,1-2.39-1,6.65,6.65,0,0,0,3.5,1.86,6.29,6.29,0,0,0,2.87-.1,7,7,0,0,0,2.83-1.6,8.16,8.16,0,0,0,.71-.83,6.86,6.86,0,0,0,.48-.59,9.29,9.29,0,0,0,.56-1,7.86,7.86,0,0,0,.36-.71,13.12,13.12,0,0,0,.48-1.42c.07-.25.17-.47.23-.73a21.34,21.34,0,0,0,.5-2.55c.51-3.6.18-6.39-1-8.41A7.63,7.63,0,0,0,74,53.22Z"/><path class="cls-12" d="M115.36,152.4q-7.19-9.39-5.23-23.35c.15-1.05.34-2.06.56-3.05.07-.31.15-.61.22-.92.17-.67.34-1.32.54-2,.1-.33.21-.66.32-1,.2-.6.42-1.19.66-1.76.12-.29.24-.59.37-.88.29-.65.6-1.27.94-1.88l.27-.52q.66-1.14,1.41-2.19l.41-.52c.39-.51.79-1,1.22-1.47.2-.22.41-.44.62-.65a23.78,23.78,0,0,1,3.84-3.21q9.43-6.25,22.91-3.69a34.9,34.9,0,0,1,15.51,6.81,34.31,34.31,0,0,0-16.63-7.7q-13.45-2.55-22.9,3.69a23.85,23.85,0,0,0-3.85,3.21l-.61.65c-.43.47-.83,1-1.22,1.47l-.41.52a24.78,24.78,0,0,0-1.41,2.19l-.28.52c-.33.61-.65,1.23-.94,1.88l-.36.88c-.24.57-.46,1.16-.67,1.76-.1.32-.21.65-.31,1-.2.64-.38,1.29-.54,2-.07.31-.16.61-.22.92-.22,1-.41,2-.56,3q-2,14,5.23,23.35a29.37,29.37,0,0,0,5,5.1A29.68,29.68,0,0,1,115.36,152.4Z"/><path class="cls-12" d="M45.11,80.46q-7.22-9.36-5.23-23.33c.15-1.05.34-2.07.56-3.05.06-.32.15-.61.22-.92.16-.67.34-1.33.54-2,.1-.33.2-.65.31-1q.32-.91.66-1.77c.12-.29.24-.59.37-.87q.45-1,1-1.92l.25-.48A23.39,23.39,0,0,1,45.16,43l.42-.54c.39-.5.78-1,1.2-1.45.2-.23.41-.44.62-.65a23.42,23.42,0,0,1,3.86-3.21q9.43-6.26,22.91-3.71a34.63,34.63,0,0,1,15.48,6.82,34.22,34.22,0,0,0-16.59-7.71Q59.56,30,50.15,36.25a23,23,0,0,0-3.86,3.21c-.21.21-.42.42-.62.65-.42.46-.81,1-1.2,1.45l-.42.54a23.47,23.47,0,0,0-1.42,2.19l-.25.48c-.34.62-.66,1.26-1,1.92-.13.28-.25.58-.37.87q-.35.86-.66,1.77c-.11.32-.22.64-.32,1-.19.64-.37,1.3-.53,2-.08.31-.16.6-.23.92-.21,1-.4,2-.55,3.05q-2,14,5.23,23.33a29.14,29.14,0,0,0,5.06,5.11A29.86,29.86,0,0,1,45.11,80.46Z"/><path class="cls-12" d="M56.37,138.57a34.16,34.16,0,0,1,1.29-5.78,17.13,17.13,0,0,1,3.82-6l77.78-81.17A38.73,38.73,0,0,1,150,51.07c-.32-.27-.64-.54-1-.81a38.87,38.87,0,0,0-10.82-5.58L60.37,125.85a17.13,17.13,0,0,0-3.82,6.05,35.18,35.18,0,0,0-1.3,5.78,9.14,9.14,0,0,0,3.43,7.6c.34.31.73.58,1.09.87A9.11,9.11,0,0,1,56.37,138.57Z"/></g><path class="cls-13" d="M55.25,137.68a35.18,35.18,0,0,1,1.3-5.78,17.13,17.13,0,0,1,3.82-6.05l77.78-81.17-4.87,4.62L55.5,130.47a17.07,17.07,0,0,0-3.82,6.06,35.18,35.18,0,0,0-1.3,5.78,9.14,9.14,0,0,0,3.43,7.6,28.06,28.06,0,0,0,9.51,5.33l4.87-4.62a28.07,28.07,0,0,1-9.51-5.34A9.14,9.14,0,0,1,55.25,137.68Z"/></g></g></svg>