<svg width="23" height="26" viewBox="0 0 23 26" fill="none" xmlns="http://www.w3.org/2000/svg">
<path d="M10.3502 7.8001C10.3502 5.7201 11.2702 3.9001 12.6502 2.6001H11.5002C7.01519 2.6001 3.4502 3.7701 3.4502 5.2001C3.4502 6.5001 6.44019 7.5401 10.3502 7.8001ZM11.5002 19.5001C7.01519 19.5001 3.4502 18.3301 3.4502 16.9001V20.8001C3.4502 22.2301 7.01519 23.4001 11.5002 23.4001C15.9852 23.4001 19.5502 22.2301 19.5502 20.8001V16.9001C19.5502 18.3301 15.9852 19.5001 11.5002 19.5001ZM14.7202 14.0401C13.6852 14.1701 12.5352 14.3001 11.5002 14.3001C7.01519 14.3001 3.4502 13.1301 3.4502 11.7001V15.6001C3.4502 17.0301 7.01519 18.2001 11.5002 18.2001C15.9852 18.2001 19.5502 17.0301 19.5502 15.6001V13.0001C18.5152 13.9101 17.3652 14.3001 16.1002 14.3001C15.6402 14.3001 15.1802 14.1701 14.7202 14.0401ZM11.5002 13.0001H12.6502C11.5002 12.0901 10.6952 10.6601 10.4652 9.1001C6.5552 8.9701 3.4502 7.8001 3.4502 6.5001V10.4001C3.4502 11.8301 7.01519 13.0001 11.5002 13.0001ZM16.1002 13.0001C18.6302 13.0001 20.7002 10.6601 20.7002 7.8001C20.7002 4.9401 18.6302 2.6001 16.1002 2.6001C13.5702 2.6001 11.5002 4.9401 11.5002 7.8001C11.5002 10.6601 13.5702 13.0001 16.1002 13.0001ZM16.1002 3.9001L19.5502 7.8001H17.2502V11.7001H14.9502V7.8001H12.6502L16.1002 3.9001Z" fill="#F42408"/>
</svg>
