<svg width="20" height="25" viewBox="0 0 20 25" fill="none" xmlns="http://www.w3.org/2000/svg">
<path d="M12 0.875C8.59 0.875 5.69 2.25708 4.54 4.19458L9.79 10.9758C10.5 11.1179 11.22 11.2083 12 11.2083C16.42 11.2083 20 8.89625 20 6.04167C20 3.18708 16.42 0.875 12 0.875ZM3.92 6.145L2.5 7.97917L5 11.2083H0V13.7917H5L2.5 17.0208L3.92 18.855L8.84 12.5L3.92 6.145ZM20 8.625C20 11.4796 16.42 13.7917 12 13.7917C11.34 13.7917 10.7 13.7271 10.09 13.6237L7.62 16.8142C8.88 17.3438 10.38 17.6667 12 17.6667C16.42 17.6667 20 15.3546 20 12.5V8.625ZM20 15.0833C20 17.9379 16.42 20.25 12 20.25C9.72 20.25 7.67 19.6042 6.21 18.6354L4.53 20.8054C5.68 22.7429 8.59 24.125 12 24.125C16.42 24.125 20 21.8129 20 18.9583" fill="#1B8F46"/>
</svg>
