<svg width="31" height="26" viewBox="0 0 31 26" fill="none" xmlns="http://www.w3.org/2000/svg">
<path opacity="0.3" d="M29.0625 9.43394L22.2812 3.33065C22.2812 2.19718 22.4556 1.08115 22.785 0C20.9056 0.435949 19.375 1.69148 18.7356 3.33065H6.78125C3.04188 3.33065 0 6.06841 0 9.43394C0 12.7123 2.36375 21.0302 3.89438 26H7.75V22.5124H19.375V26H23.2694L26.2725 17.0195L31 15.5895V9.43394H29.0625ZM17.4375 8.56204H7.75V5.07445H17.4375V8.56204ZM23.25 12.0496C22.1844 12.0496 21.3125 11.2649 21.3125 10.3058C21.3125 9.34675 22.1844 8.56204 23.25 8.56204C24.3156 8.56204 25.1875 9.34675 25.1875 10.3058C25.1875 11.2649 24.3156 12.0496 23.25 12.0496Z" fill="#19191C"/>
</svg>
