<svg width="16" height="19" viewBox="0 0 16 19" fill="none" xmlns="http://www.w3.org/2000/svg">
<path fill-rule="evenodd" clip-rule="evenodd" d="M8.31079 18.6301C8.20256 18.658 8.11133 18.6719 8.03711 18.6719C7.96289 18.6719 7.87166 18.658 7.76343 18.6301C7.65519 18.6023 7.54232 18.5575 7.4248 18.4956C6.13216 17.7596 5.03898 17.1102 4.14526 16.5474C3.25155 15.9845 2.5341 15.4387 1.99292 14.9099C1.45174 14.3811 1.059 13.809 0.814697 13.1936C0.570394 12.5782 0.448242 11.853 0.448242 11.0181V4.02295C0.448242 3.54671 0.550293 3.2019 0.754395 2.98853C0.958496 2.77515 1.25228 2.59115 1.63574 2.43652C1.85221 2.34993 2.14909 2.23397 2.52637 2.08862C2.90365 1.94328 3.31958 1.78556 3.77417 1.61548C4.22876 1.44539 4.68335 1.2784 5.13794 1.1145C5.59253 0.950602 6.00846 0.802165 6.38574 0.669189C6.76302 0.536214 7.0599 0.432617 7.27637 0.358398C7.40006 0.321289 7.52531 0.290365 7.6521 0.265625C7.77889 0.240885 7.90723 0.228516 8.03711 0.228516C8.16699 0.228516 8.29688 0.240885 8.42676 0.265625C8.55664 0.290365 8.68343 0.321289 8.80713 0.358398C9.0236 0.432617 9.31893 0.536214 9.69312 0.669189C10.0673 0.802165 10.4817 0.952148 10.9363 1.11914L12.3 1.62012C12.7546 1.78711 13.1706 1.94173 13.5479 2.08398C13.9251 2.22624 14.222 2.34375 14.4385 2.43652C14.8281 2.59733 15.1235 2.78288 15.3245 2.99316C15.5255 3.20345 15.626 3.54671 15.626 4.02295V11.0181C15.626 11.853 15.5085 12.5844 15.2734 13.2122C15.0384 13.8399 14.6534 14.4259 14.1184 14.9702C13.5834 15.5145 12.8691 16.0649 11.9753 16.6216C11.0816 17.1782 9.97298 17.8029 8.64941 18.4956C8.5319 18.5575 8.41903 18.6023 8.31079 18.6301ZM6.56201 13.5322C6.69189 13.6003 6.83724 13.6343 6.99805 13.6343C7.15885 13.6343 7.3042 13.5972 7.43408 13.5229C7.56396 13.4487 7.67839 13.3374 7.77734 13.189L12.1377 6.31445C12.1934 6.22168 12.2459 6.12272 12.2954 6.01758C12.3449 5.91244 12.3696 5.80729 12.3696 5.70215C12.3696 5.48568 12.2892 5.31405 12.1284 5.18726C11.9676 5.06047 11.7882 4.99707 11.5903 4.99707C11.3182 4.99707 11.0955 5.13932 10.9224 5.42383L6.96094 11.7881L5.07764 9.35742C4.96012 9.2028 4.84725 9.09766 4.73901 9.04199C4.63078 8.98633 4.50863 8.9585 4.37256 8.9585C4.16227 8.9585 3.986 9.03426 3.84375 9.18579C3.7015 9.33732 3.63037 9.51823 3.63037 9.72852C3.63037 9.83366 3.65047 9.93726 3.69067 10.0393C3.73088 10.1414 3.78499 10.2388 3.85303 10.3315L6.18164 13.189C6.30534 13.3498 6.43213 13.4642 6.56201 13.5322Z" fill="#212B38"/>
</svg>
