<svg width="20" height="20" viewBox="0 0 20 20" fill="none" xmlns="http://www.w3.org/2000/svg">
<path fill-rule="evenodd" clip-rule="evenodd" d="M16.6797 19.644C16.4199 19.7183 16.0643 19.7755 15.6128 19.8157C15.1613 19.8559 14.6232 19.8729 13.9985 19.8667L12.6812 19.8574C11.5679 19.8451 10.5613 19.6812 9.66138 19.3657C8.76147 19.0503 7.99455 18.6127 7.3606 18.053C6.72664 17.4932 6.24268 16.8392 5.90869 16.0908C5.57471 15.3424 5.4139 14.5291 5.42627 13.6509C5.43864 12.8901 5.5144 12.2129 5.65356 11.6191C5.79272 11.0254 5.99837 10.4657 6.27051 9.93994C6.54264 9.41423 6.8859 8.87923 7.30029 8.33496C8.03011 7.37012 8.8326 6.31559 9.70776 5.17139C10.5829 4.02718 11.3761 2.75928 12.0874 1.36768C12.2729 1.00895 12.4662 0.719808 12.6672 0.500244C12.8682 0.28068 13.1419 0.170898 13.4883 0.170898C13.8656 0.170898 14.181 0.296143 14.4346 0.546631C14.6882 0.797119 14.8149 1.14502 14.8149 1.59033C14.8149 2.01709 14.7345 2.47323 14.5737 2.95874C14.4129 3.44425 14.2258 3.93132 14.0125 4.41992C13.7991 4.90853 13.612 5.3693 13.4512 5.80225C13.2904 6.23519 13.21 6.61556 13.21 6.94336C13.21 7.2959 13.3398 7.57577 13.5996 7.78296C13.8594 7.99015 14.2057 8.09375 14.6387 8.09375H18.0249C18.3403 8.09375 18.6248 8.16952 18.8784 8.32104C19.132 8.47258 19.3315 8.67513 19.4768 8.92871C19.6222 9.18229 19.6948 9.4637 19.6948 9.77295C19.6948 10.0451 19.6515 10.2878 19.5649 10.5012C19.4784 10.7146 19.3577 10.8831 19.2031 11.0068C19.0547 11.1367 19.0423 11.2604 19.166 11.3779C19.2959 11.4954 19.3949 11.6624 19.4629 11.8789C19.5309 12.0954 19.5649 12.3118 19.5649 12.5283C19.5649 12.8438 19.4969 13.1283 19.3608 13.3818C19.2248 13.6354 19.0485 13.8241 18.832 13.9478C18.6712 14.0467 18.6465 14.1704 18.7578 14.3188C18.9805 14.6095 19.0918 14.9714 19.0918 15.4043C19.0918 15.7878 18.9836 16.1156 18.7671 16.3877C18.5506 16.6598 18.2939 16.8547 17.9971 16.9722C17.8796 17.0216 17.861 17.1113 17.9414 17.2412C18.0033 17.3464 18.0558 17.467 18.0991 17.603C18.1424 17.7391 18.1641 17.8999 18.1641 18.0854C18.1641 18.5431 18.011 18.8941 17.7048 19.1384C17.3987 19.3827 17.057 19.5513 16.6797 19.644ZM4.71191 16.6289C5.11393 17.5505 5.74479 18.3236 6.60449 18.9482H4.90674C4.11507 18.9482 3.40535 18.7101 2.77759 18.2339C2.14982 17.7577 1.65503 17.1237 1.29321 16.332C0.931396 15.5404 0.750488 14.6683 0.750488 13.7158C0.750488 12.7324 0.91748 11.8433 1.25146 11.0486C1.58545 10.2538 2.04004 9.62142 2.61523 9.15137C3.19043 8.68132 3.83675 8.44629 4.5542 8.44629H5.9458C5.6613 8.79883 5.38298 9.22404 5.11084 9.72192C4.8387 10.2198 4.61141 10.7935 4.42896 11.4429C4.2465 12.0923 4.14909 12.819 4.13672 13.623C4.11816 14.7054 4.3099 15.7074 4.71191 16.6289Z" fill="#212B38"/>
</svg>
