<svg width="24" height="24" viewBox="0 0 24 24" fill="none" xmlns="http://www.w3.org/2000/svg">
<path fill-rule="evenodd" clip-rule="evenodd" d="M0 12C0 5.375 5.375 0 12 0C18.625 0 24 5.375 24 12C24 18.625 18.625 24 12 24C5.375 24 0 18.625 0 12ZM20.645 10.4C19.89 6.31 16.3055 3.2 12 3.2C7.695 3.2 4.1085 6.31 3.353 10.4H7.645C8.195 9.45 9.22 8.8 10.4 8.8H13.5965C14.777 8.8 15.799 9.45 16.356 10.4H20.645ZM3.353 13.6H7.998L10.4015 16.8V20.6475C6.83 19.99 4.0125 17.17 3.353 13.6ZM13.555 16.8V20.645C17.17 19.99 19.99 17.17 20.6035 13.6H15.9585L13.555 16.8Z" fill="#37465B"/>
</svg>
