<svg width="17" height="21" viewBox="0 0 17 21" fill="none" xmlns="http://www.w3.org/2000/svg">
<path fill-rule="evenodd" clip-rule="evenodd" d="M15.3059 19.5234C14.8266 20.0059 14.1076 20.2471 13.1489 20.2471H3.29639C2.33773 20.2471 1.61873 20.0059 1.1394 19.5234C0.660075 19.041 0.42041 18.3143 0.42041 17.3433V3.26953C0.42041 2.30469 0.660075 1.57796 1.1394 1.08936C1.61873 0.600749 2.33773 0.356445 3.29639 0.356445H13.1489C14.1076 0.356445 14.8266 0.600749 15.3059 1.08936C15.7852 1.57796 16.0249 2.30469 16.0249 3.26953V17.3433C16.0249 18.3143 15.7852 19.041 15.3059 19.5234ZM4.59521 5.59814H11.8594C12.0264 5.59814 12.1655 5.53939 12.2769 5.42188C12.3882 5.30436 12.4438 5.16211 12.4438 4.99512C12.4438 4.83431 12.3882 4.69824 12.2769 4.58691C12.1655 4.47559 12.0264 4.41992 11.8594 4.41992H4.59521C4.42204 4.41992 4.27979 4.47559 4.16846 4.58691C4.05713 4.69824 4.00146 4.83431 4.00146 4.99512C4.00146 5.16211 4.05713 5.30436 4.16846 5.42188C4.27979 5.53939 4.42204 5.59814 4.59521 5.59814ZM11.8594 8.93799H4.59521C4.42204 8.93799 4.27979 8.87923 4.16846 8.76172C4.05713 8.64421 4.00146 8.50195 4.00146 8.33496C4.00146 8.17415 4.05713 8.03809 4.16846 7.92676C4.27979 7.81543 4.42204 7.75977 4.59521 7.75977H11.8594C12.0264 7.75977 12.1655 7.81543 12.2769 7.92676C12.3882 8.03809 12.4438 8.17415 12.4438 8.33496C12.4438 8.50195 12.3882 8.64421 12.2769 8.76172C12.1655 8.87923 12.0264 8.93799 11.8594 8.93799ZM4.59521 12.2778H8.02783C8.20101 12.2778 8.34326 12.2206 8.45459 12.1062C8.56592 11.9918 8.62158 11.8542 8.62158 11.6934C8.62158 11.5264 8.56592 11.3857 8.45459 11.2712C8.34326 11.1568 8.20101 11.0996 8.02783 11.0996H4.59521C4.42204 11.0996 4.27979 11.1568 4.16846 11.2712C4.05713 11.3857 4.00146 11.5264 4.00146 11.6934C4.00146 11.8542 4.05713 11.9918 4.16846 12.1062C4.27979 12.2206 4.42204 12.2778 4.59521 12.2778Z" fill="#212B38"/>
</svg>
