<svg id="Layer_1" data-name="Layer 1" xmlns="http://www.w3.org/2000/svg" viewBox="0 0 167.31 188.05"><path d="M83.51,0C56.06,0,36,19.9,35.9,47.52,35.8,74.8,55.56,95.23,83.49,95.3c27.41.07,47-19.79,47.92-47.64C130.56,20.05,111.12,0,83.51,0Zm0,84.22C62.1,84.16,46.93,68.49,47,47.55c.08-21.2,15.47-36.47,36.54-36.47s36.1,15.39,36.76,36.58C119.63,69,104.57,84.27,83.53,84.22Z"/><path d="M89.71,110.44H77.61A77.61,77.61,0,0,0,0,188.05H13.28a70.6,70.6,0,0,1,70.38-65.13h0A70.59,70.59,0,0,1,154,188.05h13.28A77.61,77.61,0,0,0,89.71,110.44Z"/></svg>