<svg id="Layer_1" data-name="Layer 1" xmlns="http://www.w3.org/2000/svg" viewBox="0 0 167.28 183.42"><path d="M83.68,183.37H14.32c-4.82,0-9.27-1.15-11.87-5.44A15.4,15.4,0,0,1,0,170C.4,155.18,4.79,141.57,14.28,130,24.85,117,38.41,109,55,106.69a150.46,150.46,0,0,1,17.88-1c9-.16,18-.09,27,0,15.18.1,29.28,3.74,41.51,13.12,13.2,10.1,21.69,23.2,24.6,39.67.77,4.31,1.54,8.77,1.22,13.08-.56,7.66-5.83,11.84-13.91,11.86H103.65Z"/><path d="M131.4,47.66c-.88,27.85-20.51,47.71-47.92,47.64-27.93-.07-47.69-20.5-47.59-47.78C36,19.9,56.05,0,83.5,0,111.11,0,130.55,20.05,131.4,47.66Z"/></svg>