<svg id="Layer_1" data-name="Layer 1" xmlns="http://www.w3.org/2000/svg" viewBox="0 0 323.62 242.57"><defs><style>.cls-1{fill:#eceff1;}.cls-2{fill:#ffc107;}.cls-3{fill:#388e3c;}.cls-4{fill:#4caf50;}</style></defs><path class="cls-1" d="M.48,39.06V201.54c0,8.83,4.5,40.82,40.56,40.82s238.76-.11,246.38-.11,35.69-3.33,35.69-46.63V45.72C323.11,35.25,318.56,0,282.76,0H45.68C41,0,.48,2.42.48,39.06Z"/><circle class="cls-2" cx="67.09" cy="67.5" r="26.68"/><path class="cls-3" d="M177.27,242.57H285.83c7,0,43.14-.95,37.12-61.23a43.54,43.54,0,0,1-.2-6.53c-22.27-22.26-87.31-87.21-99.1-98.48-14.27-13.64-29.18-2.22-32,1.91S124,148,124,148s2.22,32.36,2.22,33.31C126.26,182.1,160.6,224,177.27,242.57Z"/><path class="cls-4" d="M0,204.18c0,6.35,5.39,38.39,42.51,38.39H230c-14.37-14.33-105.47-105.19-118.32-118.33-14-14.28-28.57-3.06-33.59.7C73.32,128.51,16.13,186.77,0,202.48Z"/></svg>