<svg width="25" height="25" viewBox="0 0 25 25" fill="none" xmlns="http://www.w3.org/2000/svg">
<g clip-path="url(#clip0_1380_16382)">
<path d="M12.5 0C9.18479 0 6.00537 1.31696 3.66117 3.66117C1.31696 6.00537 0 9.18479 0 12.5C0 15.8152 1.31696 18.9946 3.66117 21.3388C6.00537 23.683 9.18479 25 12.5 25C15.8152 25 18.9946 23.683 21.3388 21.3388C23.683 18.9946 25 15.8152 25 12.5C25 9.18479 23.683 6.00537 21.3388 3.66117C18.9946 1.31696 15.8152 0 12.5 0V0ZM7.43125 7.13438C8.62344 4.90937 13.7125 6.94688 8.91875 12.5C1.89375 10.0063 5.24688 5.78437 7.43125 7.13438ZM17.6797 15.6469C17.828 15.612 17.9833 15.6212 18.1265 15.6734C18.2696 15.7256 18.3944 15.8185 18.4854 15.9408C18.5764 16.063 18.6296 16.2091 18.6386 16.3613C18.6476 16.5134 18.6119 16.6648 18.5359 16.7969C17.9189 17.8662 17.0312 18.7541 15.962 19.3713C14.8928 19.9884 13.6799 20.3131 12.4453 20.3125C11.2108 20.3131 9.99786 19.9884 8.92866 19.3713C7.85946 18.7541 6.97168 17.8662 6.35469 16.7969C6.27871 16.6648 6.24302 16.5134 6.252 16.3613C6.26099 16.2091 6.31426 16.063 6.40526 15.9408C6.49626 15.8185 6.62102 15.7256 6.76417 15.6734C6.90732 15.6212 7.06262 15.612 7.21094 15.6469H7.21875L7.24531 15.6547L7.35 15.6781L7.74375 15.7641C8.07969 15.8359 8.54844 15.9328 9.08281 16.0281C10.1656 16.2219 11.4609 16.4062 12.4453 16.4062C13.4297 16.4062 14.7266 16.2219 15.8078 16.0281C16.3878 15.9238 16.9656 15.8071 17.5406 15.6781L17.6453 15.6547L17.6719 15.6484L17.6797 15.6453V15.6469ZM17.5703 7.13438C19.7531 5.78437 23.1062 10.0063 16.0812 12.5C11.2891 6.94688 16.3781 4.90937 17.5688 7.13438H17.5703Z" fill="#FCBD1B"/>
</g>
<defs>
<clipPath id="clip0_1380_16382">
<rect width="25" height="25" fill="white"/>
</clipPath>
</defs>
</svg>
