<svg width="18" height="23" viewBox="0 0 18 23" fill="none" xmlns="http://www.w3.org/2000/svg">
<path d="M1.73766 22.21C1.33766 22.21 1.00766 22.11 0.747656 21.91C0.487656 21.69 0.337656 21.42 0.297656 21.1C0.257656 20.76 0.367656 20.42 0.627656 20.08L7.70766 10.57V11.83L1.01766 2.83C0.757656 2.47 0.637656 2.12 0.657656 1.78C0.697656 1.44 0.847656 1.17 1.10766 0.969999C1.36766 0.749999 1.68766 0.64 2.06766 0.64C2.38766 0.64 2.66766 0.719999 2.90766 0.879998C3.16766 1.02 3.42766 1.27 3.68766 1.63L9.50766 9.61H8.54766L14.3077 1.63C14.5677 1.27 14.8177 1.02 15.0577 0.879998C15.3177 0.719999 15.6177 0.64 15.9577 0.64C16.3577 0.64 16.6877 0.749999 16.9477 0.969999C17.2077 1.17 17.3477 1.44 17.3677 1.78C17.4077 2.1 17.2877 2.45 17.0077 2.83L10.3177 11.83V10.57L17.3677 20.08C17.6277 20.42 17.7377 20.76 17.6977 21.1C17.6777 21.42 17.5377 21.69 17.2777 21.91C17.0177 22.11 16.6777 22.21 16.2577 22.21C15.9577 22.21 15.6777 22.13 15.4177 21.97C15.1577 21.81 14.8877 21.56 14.6077 21.22L8.42766 12.76H9.56766L3.41766 21.22C3.15766 21.56 2.88766 21.81 2.60766 21.97C2.34766 22.13 2.05766 22.21 1.73766 22.21Z" fill="#F32924"/>
</svg>
