<svg width="23" height="19" viewBox="0 0 23 19" fill="none" xmlns="http://www.w3.org/2000/svg">
<path fill-rule="evenodd" clip-rule="evenodd" d="M2.56689 18.0688C2.91325 18.0688 3.20549 17.9513 3.4436 17.7163C3.68172 17.4813 3.80078 17.1937 3.80078 16.8535L3.8 15.298L3.90747 15.3042C4.60327 15.3475 5.36865 15.3846 6.20361 15.4155C7.03857 15.4465 7.889 15.4712 8.75488 15.4897C9.62077 15.5083 10.4434 15.5176 11.2227 15.5176C12.002 15.5176 12.8245 15.5083 13.6904 15.4897C14.5563 15.4712 15.4067 15.4465 16.2417 15.4155C17.0767 15.3846 17.842 15.3475 18.5378 15.3042L18.653 15.297L18.6538 16.8535C18.6538 17.1937 18.7713 17.4813 19.0063 17.7163C19.2414 17.9513 19.5321 18.0688 19.8784 18.0688H20.9731C21.3195 18.0688 21.6102 17.9513 21.8452 17.7163C22.0802 17.4813 22.1978 17.1937 22.1978 16.8535V12.8457V11.5005C22.1978 10.981 22.1606 10.5233 22.0864 10.1274C22.0122 9.73161 21.8885 9.36206 21.7153 9.0188C21.5422 8.67554 21.3133 8.31836 21.0288 7.94727L20.2402 6.93604C20.1289 6.37939 19.9944 5.83048 19.8367 5.28931C19.679 4.74813 19.5212 4.25952 19.3635 3.82349C19.2058 3.38745 19.0744 3.05501 18.9692 2.82617C18.7218 2.30664 18.3647 1.89225 17.8977 1.58301C17.4307 1.27376 16.8911 1.07585 16.2788 0.989258C16.0685 0.964518 15.7175 0.942871 15.2258 0.924316C14.7341 0.905762 14.1435 0.890299 13.4539 0.87793C12.7642 0.86556 12.0205 0.859375 11.2227 0.859375C10.4248 0.859375 9.68107 0.86556 8.99146 0.87793C8.30184 0.890299 7.71118 0.905762 7.21948 0.924316C6.72778 0.942871 6.37988 0.964518 6.17578 0.989258C5.55729 1.06348 5.01611 1.2583 4.55225 1.57373C4.08838 1.88916 3.73275 2.30664 3.48535 2.82617C3.37402 3.05501 3.24105 3.38745 3.08643 3.82349C2.9318 4.25952 2.77409 4.74813 2.61328 5.28931C2.45247 5.83048 2.31641 6.37939 2.20508 6.93604L1.42578 7.94727C1.13509 8.31836 0.904704 8.67554 0.734619 9.0188C0.564534 9.36206 0.440837 9.73161 0.363525 10.1274C0.286214 10.5233 0.247559 10.981 0.247559 11.5005V13.1333V16.8535C0.247559 17.1937 0.365072 17.4813 0.600098 17.7163C0.835124 17.9513 1.12891 18.0688 1.48145 18.0688H2.56689ZM17.958 6.61133C17.4447 6.5804 16.8803 6.54948 16.2649 6.51855C15.6495 6.48763 14.9351 6.46289 14.1218 6.44434C13.4102 6.4281 12.5813 6.41897 11.6353 6.41694L11.2227 6.4165C10.1032 6.4165 9.1368 6.42578 8.32349 6.44434C7.51017 6.46289 6.79736 6.48763 6.18506 6.51855C5.57275 6.54948 5.00993 6.5804 4.49658 6.61133C4.31722 6.6237 4.19198 6.59587 4.12085 6.52783C4.04972 6.4598 4.03581 6.33919 4.0791 6.16602C4.14714 5.82585 4.23991 5.46712 4.35742 5.08984C4.47494 4.71257 4.59554 4.36157 4.71924 4.03687C4.84294 3.71216 4.95426 3.46012 5.05322 3.28076C5.17692 3.06429 5.31608 2.90348 5.4707 2.79834C5.62533 2.6932 5.82633 2.62516 6.07373 2.59424C6.42627 2.54476 7.01383 2.5061 7.83643 2.47827C8.58424 2.45297 9.58506 2.43917 10.8389 2.43687L11.2227 2.43652C12.6576 2.43652 13.7878 2.44889 14.6135 2.47363C15.4392 2.49837 16.0252 2.53857 16.3716 2.59424C16.6252 2.63135 16.8262 2.70093 16.9746 2.80298C17.123 2.90503 17.2622 3.06429 17.3921 3.28076C17.4972 3.46012 17.6101 3.71216 17.7307 4.03687C17.8513 4.36157 17.9688 4.71257 18.0833 5.08984C18.1977 5.46712 18.2951 5.82585 18.3755 6.16602C18.4188 6.33919 18.4049 6.4598 18.3337 6.52783C18.2626 6.59587 18.1374 6.6237 17.958 6.61133ZM3.4668 12.5859C3.7513 12.8704 4.10693 13.0127 4.53369 13.0127C4.96045 13.0127 5.31608 12.8704 5.60059 12.5859C5.88509 12.3014 6.02734 11.9458 6.02734 11.519C6.02734 11.0985 5.88509 10.7459 5.60059 10.4614C5.31608 10.1769 4.96045 10.0347 4.53369 10.0347C4.10693 10.0347 3.7513 10.1769 3.4668 10.4614C3.18229 10.7459 3.04004 11.0985 3.04004 11.519C3.04004 11.9458 3.18229 12.3014 3.4668 12.5859ZM17.9116 13.0127C17.491 13.0127 17.1385 12.8704 16.854 12.5859C16.5695 12.3014 16.4272 11.9458 16.4272 11.519C16.4272 11.0985 16.5695 10.7459 16.854 10.4614C17.1385 10.1769 17.491 10.0347 17.9116 10.0347C18.3384 10.0347 18.694 10.1769 18.9785 10.4614C19.263 10.7459 19.4053 11.0985 19.4053 11.519C19.4053 11.9458 19.263 12.3014 18.9785 12.5859C18.694 12.8704 18.3384 13.0127 17.9116 13.0127ZM8.77344 12.6509H13.6812C13.9966 12.6509 14.2533 12.5504 14.4512 12.3494C14.6491 12.1484 14.748 11.8901 14.748 11.5747C14.748 11.2593 14.6491 11.0011 14.4512 10.8C14.2533 10.599 13.9966 10.4985 13.6812 10.4985H8.77344C8.45182 10.4985 8.19206 10.599 7.99414 10.8C7.79622 11.0011 7.69727 11.2593 7.69727 11.5747C7.69727 11.8901 7.79622 12.1484 7.99414 12.3494C8.19206 12.5504 8.45182 12.6509 8.77344 12.6509Z" fill="#212B38"/>
</svg>
