<svg width="25" height="24" viewBox="0 0 25 24" fill="none" xmlns="http://www.w3.org/2000/svg">
<path d="M16.5987 12.9V17.1C16.5987 20.6 15.2197 22 11.7722 22H7.63515C4.18761 22 2.80859 20.6 2.80859 17.1V12.9C2.80859 9.4 4.18761 8 7.63515 8H11.7722C15.2197 8 16.5987 9.4 16.5987 12.9Z" stroke="#B1B1B1" stroke-width="1.5" stroke-linecap="round" stroke-linejoin="round"/>
<path d="M22.5089 6.9V11.1C22.5089 14.6 21.1299 16 17.6824 16H16.5988V12.9C16.5988 9.4 15.2198 8 11.7723 8H8.71875V6.9C8.71875 3.4 10.0978 2 13.5453 2H17.6824C21.1299 2 22.5089 3.4 22.5089 6.9Z" stroke="#B1B1B1" stroke-width="1.5" stroke-linecap="round" stroke-linejoin="round"/>
</svg>
