<svg id="Layer_1" data-name="Layer 1" xmlns="http://www.w3.org/2000/svg" viewBox="0 0 191.23 191.35"><path d="M95.93,0C43.72.4.31,40.85,0,95.44-.3,147.63,40.71,191,95.31,191.35c52.08.3,95.6-40.6,95.92-95.29C191.54,44,150.63,1,95.93,0Zm-.57,176.38C49.3,176.08,14.71,139.5,15,95.48,15.23,49.43,51.84,15.31,95.88,15c46.14.85,80.65,37.12,80.39,81C176,142.13,139.29,176.63,95.36,176.38Z"/><path d="M102.86,61.72c-2.43,2.13-4.74,4.44-7.52,7-1.51-1.79-3.12-3.51-4.81-5.15a41.37,41.37,0,0,0-6.65-5.06c-9.67-5.52-23.3-3.18-30,5C44.52,74.84,45,88.49,55.14,99c10.86,11.21,22,22.14,32.77,33.49,4.69,4.94,11.61,4.42,15.94-.08,10.75-11.22,21.64-22.31,32.45-33.47,5.49-5.66,8.47-12.32,7.63-20.37C142.85,68.3,137.68,60.84,128,57.16,118.84,53.67,110.34,55.38,102.86,61.72Z"/></svg>