<svg id="Layer_1" data-name="Layer 1" xmlns="http://www.w3.org/2000/svg" viewBox="0 0 191.23 191.35"><path d="M95.93,0c54.7,1,95.61,44,95.3,96.06-.32,54.69-43.84,95.59-95.92,95.29C40.71,191-.3,147.63,0,95.44.31,40.85,43.72.4,95.93,0Zm-.67,71.39a79.29,79.29,0,0,0-5.44-5.82,46.41,46.41,0,0,0-7.5-5.71C71.39,53.62,56,56.27,48.38,65.5c-10.51,12.74-10,28.15,1.48,40,12.26,12.66,24.84,25,37,37.81,5.3,5.58,13.12,5,18-.09,12.14-12.67,24.44-25.19,36.65-37.79,6.2-6.39,9.56-13.91,8.61-23-1.21-11.58-7.05-20-18-24.16-10.33-3.94-19.93-2-28.37,5.15C101,65.83,98.4,68.44,95.26,71.39Z"/></svg>