<svg width="28" height="27" viewBox="0 0 28 27" fill="none" xmlns="http://www.w3.org/2000/svg">
<path d="M24.2783 1.70866C20.6685 4.83428 17.3568 8.15022 14.5597 12.0305C13.326 13.7424 12.3561 15.6441 11.4599 17.5463C11.0385 18.4416 10.7868 19.373 10.55 20.3044C8.82831 18.7041 7.15253 17.0583 5.26253 15.6357C3.91488 14.6218 -0.608561 17.8013 0.971126 18.991C3.80238 21.121 6.16019 23.7727 8.91175 25.9974C10.0639 26.9269 12.6172 24.9094 13.2153 24.0615C15.1846 21.2724 15.4536 17.8604 16.8894 14.8168C19.0813 10.1626 22.9677 6.34178 26.8035 3.01835C29.6675 0.539597 26.2072 0.0385031 24.2793 1.70678" fill="#48FC1B"/>
</svg>
