<svg id="Layer_1" data-name="Layer 1" xmlns="http://www.w3.org/2000/svg" viewBox="0 0 196.67 198.89"><defs><style>.cls-1{fill:#020202;}</style></defs><path d="M77.5,0A77.5,77.5,0,1,0,155,77.5,77.5,77.5,0,0,0,77.5,0Zm0,138.58A61.08,61.08,0,1,1,138.58,77.5,61.07,61.07,0,0,1,77.5,138.58Z"/><path class="cls-1" d="M151.12,125.51h25.55a0,0,0,0,1,0,0V194.8a12.45,12.45,0,0,1-12.45,12.45h0a13.1,13.1,0,0,1-13.1-13.1V125.51a0,0,0,0,1,0,0Z" transform="translate(-69.64 164.62) rotate(-45)"/><path d="M32.33,85.32c-.34-30,24.6-57,54.55-59C92.43,26,95.55,28,96,32.27s-2.52,7.27-8.09,7.8c-23.29,2.2-40.51,20.34-41.83,44.09,0,.42,0,.85,0,1.27-.26,5-2.95,7.86-7.17,7.7S32.39,90.15,32.33,85.32Z"/><path d="M52.22,107.91a7.66,7.66,0,0,1-7.51,7.87,7.76,7.76,0,0,1-8-7.87,7.86,7.86,0,0,1,7.79-7.68A7.76,7.76,0,0,1,52.22,107.91Z"/></svg>