<svg width="17" height="23" viewBox="0 0 17 23" fill="none" xmlns="http://www.w3.org/2000/svg">
<path d="M8.5 23C13.1948 23 17 20.125 17 15.0938C17 12.9375 16.2917 9.34375 13.4583 6.46875C13.8125 8.625 11.6875 9.34375 11.6875 9.34375C12.75 5.75 9.91667 0.71875 5.66667 0C6.17242 2.875 6.375 5.75 2.83333 8.625C1.0625 10.0625 0 12.5479 0 15.0938C0 20.125 3.80517 23 8.5 23ZM8.5 21.5625C6.15258 21.5625 4.25 20.125 4.25 17.6094C4.25 16.5312 4.60417 14.7344 6.02083 13.2969C5.84375 14.375 7.08333 15.0938 7.08333 15.0938C6.55208 13.2969 7.79167 10.4219 9.91667 10.0625C9.66308 11.5 9.5625 12.9375 11.3333 14.375C12.2187 15.0938 12.75 16.3358 12.75 17.6094C12.75 20.125 10.8474 21.5625 8.5 21.5625Z" fill="black"/>
</svg>
