<svg width="40" height="40" viewBox="0 0 40 40" fill="none" xmlns="http://www.w3.org/2000/svg">
<path d="M7.51697 25.7999L10.8503 23.1499C11.6503 22.5166 12.117 21.5499 12.117 20.5333V16.1999C17.1503 14.5666 22.6003 14.5499 27.6503 16.1999V20.5499C27.6503 21.5666 28.117 22.5333 28.917 23.1666L32.2336 25.7999C33.567 26.8499 35.467 26.7499 36.667 25.5499L38.7003 23.5166C40.0336 22.1833 40.0336 19.9666 38.617 18.7166C27.9336 9.28327 11.8336 9.28327 1.1503 18.7166C-0.266365 19.9666 -0.266365 22.1833 1.06697 23.5166L3.1003 25.5499C4.28364 26.7499 6.18364 26.8499 7.51697 25.7999Z" fill="white"/>
</svg>
