<svg width="26" height="22" viewBox="0 0 26 22" fill="none" xmlns="http://www.w3.org/2000/svg">
<circle cx="10" cy="12" r="9.5" fill="#00B74A" stroke="#00B74A"/>
<path d="M22.8152 0.630964C19.6364 2.65315 16.7201 4.79846 14.2571 7.3089C13.1706 8.41644 12.3166 9.64679 11.5274 10.8774C11.1563 11.4567 10.9346 12.0593 10.7262 12.6619C9.21003 11.6265 7.73435 10.5617 6.07003 9.64133C4.88329 8.98536 0.899974 11.0424 2.29104 11.8121C4.78422 13.1902 6.8605 14.9057 9.28351 16.345C10.2981 16.9464 12.5465 15.6412 13.0732 15.0926C14.8073 13.2881 15.0442 11.0806 16.3086 9.11152C18.2387 6.10038 21.6611 3.62846 25.0388 1.47829C27.5609 -0.125384 24.5138 -0.449576 22.816 0.629751" fill="white"/>
</svg>
