<svg id="Layer_1" data-name="Layer 1" xmlns="http://www.w3.org/2000/svg" viewBox="0 0 215.36 191.65"><path d="M213.63,89.49a21.92,21.92,0,0,0-3.76-4L118,4.49c-6.87-6.06-13.32-5.94-20.19.06q-25.07,22-50.12,43.86-21.82,19-43.57,38.1a12,12,0,0,0-2.78,14.56c2.41,4.71,6.73,6.43,11.73,6.65,3.54.13,7.1,0,10.87,0V111c0,18.22-.06,36.43,0,54.65a29.63,29.63,0,0,0,.78,7.15c2.9,11.5,12,18.8,23.9,18.8q59.28.19,118.54,0c8,0,14.82-3.11,19.82-9.76,3.6-4.81,4.9-10.29,4.9-16.14-.07-18.21-.22-36.43-.33-54.65v-3.26c3.44,0,6.51.05,9.58,0a24.55,24.55,0,0,0,4.68-.5C213.72,105.49,218,96,213.63,89.49ZM40.72,98c-4.08,0-3.82,0-10.62,0s-7.59-.2-8.4-1.8a3.45,3.45,0,0,1,0-2.73C22,92.68,25,89.83,25,89.83s9-8.28,15.63-14.33C56.45,61.06,55,62.52,59.76,58.21q20-18.19,40-36.41c5.49-5,10.64-5.08,16.13-.05l76.94,66.83c6.07,6.06-1.66,9.68-7.47,9.33a89.63,89.63,0,0,0-11,0c0,2.6.09,6.91.28,12.25s.26,25.93.26,45.36a22.22,22.22,0,0,1-3.91,13.4,18.73,18.73,0,0,1-15.83,8.1q-47.34.16-94.69,0c-7.87,0-12.93-.92-15.85-4-3.24-3.41-3.43-8.37-3.24-11.6"/><path d="M103.31,142.2c3.38,3.49,6.57,3.51,9.91.05q16.23-16.8,32.4-33.68c5-5.28,7.77-11.52,6.45-19.13a21.23,21.23,0,0,0-12.92-16.69C132,69.6,125,70.73,119,76c-3.7,3.2-7,6.87-10.62,10.38-3.62-3.51-6.92-7-10.47-10.18-10.93-9.88-27.21-4.5-32.34,9.33-3.28,8.94-.7,16.65,5.54,23.23Q87.17,125.53,103.31,142.2Z"/></svg>