<svg id="Layer_1" data-name="Layer 1" xmlns="http://www.w3.org/2000/svg" viewBox="0 0 215.36 191.65"><path d="M191.55,107.74V111c.11,18.22.26,36.44.33,54.65,0,5.85-1.3,11.33-4.9,16.14-5,6.65-11.81,9.73-19.82,9.76q-59.26.19-118.54,0c-11.92,0-21-7.3-23.9-18.8a29.63,29.63,0,0,1-.78-7.15c-.06-18.22,0-36.43,0-54.65v-3.23c-3.77,0-7.33.13-10.87,0-5-.22-9.32-1.94-11.73-6.65A12,12,0,0,1,4.12,86.51Q25.86,67.4,47.69,48.41,72.76,26.51,97.81,4.55c6.87-6,13.32-6.12,20.19-.06l91.87,81a21.92,21.92,0,0,1,3.76,4c4.34,6.46.09,16-7.82,17.74a24.55,24.55,0,0,1-4.68.5C198.06,107.79,195,107.74,191.55,107.74ZM107.76,92.46C104,89,100.64,85.54,97,82.38c-11.25-9.78-28-4.46-33.27,9.24-3.38,8.85-.72,16.48,5.7,23Q86,131.24,102.6,147.74c3.48,3.46,6.76,3.48,10.2,0q16.7-16.62,33.33-33.34c5.19-5.23,8-11.41,6.64-18.94A21.18,21.18,0,0,0,139.47,79c-7.37-3.12-14.58-2-20.78,3.2C114.88,85.35,111.44,89,107.76,92.46Z"/></svg>