<svg width="28" height="29" viewBox="0 0 28 29" fill="none" xmlns="http://www.w3.org/2000/svg">
<path fill-rule="evenodd" clip-rule="evenodd" d="M6.03571 13.125C6.41232 13.125 6.71429 12.8199 6.71429 12.4375V11.75C6.71429 7.95801 9.75725 4.875 13.5 4.875C17.2427 4.875 20.2857 7.95801 20.2857 11.75V12.4375C20.2857 14.3324 18.7632 15.875 16.8929 15.875H15.5357C15.5357 15.1179 14.9258 14.5 14.1786 14.5H12.8214C12.0742 14.5 11.4643 15.1179 11.4643 15.875C11.4643 16.6321 12.0742 17.25 12.8214 17.25H16.8929C19.5172 17.2446 21.6386 15.096 21.6429 12.4375V11.75C21.6429 7.19961 17.99 3.5 13.5 3.5C9.00998 3.5 5.35714 7.2009 5.35714 11.75V12.4375C5.35714 12.8199 5.65953 13.125 6.03571 13.125ZM14.1786 13.125C15.1489 13.125 16.0438 13.6492 16.5264 14.4979L16.8929 14.5C18.0167 14.5 18.9286 13.5762 18.9286 12.4762V11.75C18.9286 8.70996 16.5006 6.25 13.5 6.25C10.4994 6.25 8.07143 8.70996 8.07143 11.75C8.07143 13.4851 8.88232 15.0152 10.1228 16.025C10.121 16.0109 10.1191 15.9979 10.1173 15.9855L10.1173 15.9855C10.1119 15.9488 10.1071 15.9167 10.1071 15.875C10.1071 14.3539 11.3201 13.125 12.8214 13.125H14.1786ZM4 24.3527C4 21.1902 6.53192 18.625 9.65335 18.625H17.3467C20.4681 18.625 23 21.1902 23 24.3527C23 24.9887 22.4953 25.5 21.8676 25.5H5.13067C4.50638 25.5 4 24.9887 4 24.3527Z" fill="#B9BDC3"/>
</svg>
