<svg width="35" height="30" viewBox="0 0 35 30" fill="none" xmlns="http://www.w3.org/2000/svg">
<path d="M18.2732 25.5251H9.05658C4.44824 25.5251 2.91699 22.9001 2.91699 20.2626V9.7376C2.91699 5.7876 4.44824 4.4751 9.05658 4.4751H18.2732C22.8816 4.4751 24.4128 5.7876 24.4128 9.7376V20.2626C24.4128 24.2126 22.867 25.5251 18.2732 25.5251Z" stroke="white" stroke-width="2" stroke-linecap="round" stroke-linejoin="round"/>
<path d="M28.4663 21.3749L24.4121 18.9374V11.0499L28.4663 8.61242C30.4496 7.42492 32.0829 8.14992 32.0829 10.2374V19.7624C32.0829 21.8499 30.4496 22.5749 28.4663 21.3749Z" stroke="white" stroke-width="2" stroke-linecap="round" stroke-linejoin="round"/>
<path d="M16.7705 13.75C17.9786 13.75 18.958 12.9105 18.958 11.875C18.958 10.8395 17.9786 10 16.7705 10C15.5624 10 14.583 10.8395 14.583 11.875C14.583 12.9105 15.5624 13.75 16.7705 13.75Z" stroke="white" stroke-width="2" stroke-linecap="round" stroke-linejoin="round"/>
</svg>
