<svg width="32" height="32" viewBox="0 0 32 32" fill="none" xmlns="http://www.w3.org/2000/svg">
<path d="M15.9993 20.6665C18.946 20.6665 21.3327 18.2798 21.3327 15.3332V7.99984C21.3327 5.05317 18.946 2.6665 15.9993 2.6665C13.0527 2.6665 10.666 5.05317 10.666 7.99984V15.3332C10.666 18.2798 13.0527 20.6665 15.9993 20.6665Z" stroke="white" stroke-width="2" stroke-linecap="round" stroke-linejoin="round"/>
<path d="M5.79883 12.8667V15.1334C5.79883 20.76 10.3722 25.3334 15.9988 25.3334C21.6255 25.3334 26.1988 20.76 26.1988 15.1334V12.8667" stroke="white" stroke-width="2" stroke-linecap="round" stroke-linejoin="round"/>
<path d="M14.1465 8.57365C15.3465 8.13365 16.6532 8.13365 17.8532 8.57365" stroke="white" stroke-width="2" stroke-linecap="round" stroke-linejoin="round"/>
<path d="M14.9316 11.3998C15.6383 11.2131 16.3716 11.2131 17.0783 11.3998" stroke="white" stroke-width="2" stroke-linecap="round" stroke-linejoin="round"/>
<path d="M16 25.3335V29.3335" stroke="white" stroke-width="2" stroke-linecap="round" stroke-linejoin="round"/>
</svg>
