<svg width="25" height="25" viewBox="0 0 25 25" fill="none" xmlns="http://www.w3.org/2000/svg">
<path d="M12.5007 0C5.59606 0 6.78266e-08 5.59606 6.78266e-08 12.4993C-0.000170947 14.141 0.323051 15.7666 0.951207 17.2833C1.57936 18.8001 2.50015 20.1782 3.66097 21.339C4.8218 22.4999 6.19993 23.4206 7.71666 24.0488C9.23338 24.6769 10.859 25.0002 12.5007 25C19.4026 25 25 19.4039 25 12.4993C24.9987 5.59606 19.4013 0 12.5007 0ZM12.4993 22.3934C11.1999 22.3934 9.91313 22.1374 8.71257 21.6401C7.51202 21.1428 6.42117 20.414 5.5023 19.4951C4.58344 18.5762 3.85455 17.4854 3.35727 16.2848C2.85998 15.0843 2.60403 13.7975 2.60403 12.498C2.60403 11.1986 2.85998 9.91183 3.35727 8.71127C3.85455 7.51072 4.58344 6.41987 5.5023 5.501C6.42117 4.58214 7.51202 3.85325 8.71257 3.35597C9.91313 2.85868 11.1999 2.60273 12.4993 2.60273C15.1238 2.60273 17.6407 3.64527 19.4964 5.501C21.3521 7.35673 22.3947 9.87364 22.3947 12.498C22.3947 15.1224 21.3521 17.6394 19.4964 19.4951C17.6407 21.3508 15.1238 22.3934 12.4993 22.3934ZM15.7557 12.1738C16.8338 12.1738 17.7087 11.1544 17.7087 9.89532C17.7087 8.63627 16.8338 7.61679 15.7557 7.61679C14.6776 7.61679 13.8027 8.63627 13.8027 9.89532C13.8027 11.1544 14.6763 12.1738 15.7557 12.1738ZM9.24561 12.1738C10.3237 12.1738 11.1986 11.1544 11.1986 9.89532C11.1986 8.63627 10.3237 7.61679 9.24561 7.61679C8.16754 7.61679 7.29259 8.63627 7.29259 9.89532C7.29259 11.1544 8.16624 12.1738 9.24561 12.1738ZM12.502 14.1269C8.04385 14.1269 6.48404 17.141 6.41894 17.2699C6.30291 17.5016 6.28368 17.7699 6.36548 18.0158C6.44728 18.2617 6.6234 18.465 6.85511 18.5811C7.08682 18.6971 7.35513 18.7163 7.60101 18.6345C7.8469 18.5527 8.05021 18.3766 8.16624 18.1449C8.17666 18.1228 9.2365 16.0799 12.502 16.0799C15.7088 16.0799 16.796 18.0681 16.8351 18.1436C16.8917 18.2593 16.9707 18.3627 17.0676 18.4478C17.1644 18.5328 17.2771 18.5979 17.3992 18.6392C17.5212 18.6805 17.6503 18.6972 17.7789 18.6884C17.9074 18.6796 18.033 18.6454 18.1483 18.5879C18.2636 18.5303 18.3664 18.4505 18.4507 18.353C18.535 18.2555 18.5992 18.1423 18.6395 18.02C18.6799 17.8976 18.6956 17.7684 18.6858 17.6399C18.676 17.5114 18.6408 17.3861 18.5824 17.2712C18.5186 17.1423 16.9601 14.1269 12.502 14.1269Z" fill="#FCBD1B"/>
</svg>
