<svg width="36" height="26" viewBox="0 0 36 26" fill="none" xmlns="http://www.w3.org/2000/svg">
<path d="M32 0H4C2.93913 0 1.92172 0.421427 1.17157 1.17157C0.421427 1.92172 0 2.93913 0 4L0 22C0 23.0609 0.421427 24.0783 1.17157 24.8284C1.92172 25.5786 2.93913 26 4 26H32C33.0609 26 34.0783 25.5786 34.8284 24.8284C35.5786 24.0783 36 23.0609 36 22V4C36 2.93913 35.5786 1.92172 34.8284 1.17157C34.0783 0.421427 33.0609 0 32 0Z" fill="#DA251D"/>
<path d="M19.7532 11.0366L18.0002 5.6416L16.2472 11.0366H10.5752L15.1642 14.3696L13.4112 19.7646L18.0002 16.4306L22.5892 19.7646L20.8362 14.3696L25.4252 11.0366H19.7532Z" fill="#FFFF00"/>
</svg>
