<svg width="32" height="32" viewBox="0 0 32 32" fill="none" xmlns="http://www.w3.org/2000/svg">
<path d="M2.66602 13.3332V18.6665C2.66602 21.3332 3.99935 22.6665 6.66602 22.6665H8.57268C9.06602 22.6665 9.55935 22.8132 9.98602 23.0665L13.8793 25.5065C17.2393 27.6132 19.9993 26.0799 19.9993 22.1199V9.87988C19.9993 5.90655 17.2393 4.38655 13.8793 6.49322L9.98602 8.93321C9.55935 9.18655 9.06602 9.33322 8.57268 9.33322H6.66602C3.99935 9.33322 2.66602 10.6665 2.66602 13.3332Z" stroke="white" stroke-width="2"/>
<path d="M24 10.6665C26.3733 13.8265 26.3733 18.1732 24 21.3332" stroke="white" stroke-width="2" stroke-linecap="round" stroke-linejoin="round"/>
<path d="M26.4395 7.3335C30.2928 12.4668 30.2928 19.5335 26.4395 24.6668" stroke="white" stroke-width="2" stroke-linecap="round" stroke-linejoin="round"/>
</svg>
