<svg width="21" height="20" viewBox="0 0 21 20" fill="none" xmlns="http://www.w3.org/2000/svg">
<path fill-rule="evenodd" clip-rule="evenodd" d="M9.99785 20C10.723 20.0028 11.4283 19.6643 12.1138 18.9845L18.9802 12.1096C19.6657 11.4298 20.007 10.7259 20.0042 9.9979C20.0013 9.26991 19.6543 8.56317 18.9632 7.87766L12.1223 1.03682C11.4368 0.351318 10.7315 0.00573495 10.0063 6.96553e-05C9.28119 -0.00559564 8.57586 0.334322 7.89036 1.01982L1.02402 7.88616C0.338519 8.57166 -0.00281516 9.27699 1.74855e-05 10.0022C0.00285013 10.7273 0.34985 11.4326 1.04102 12.1181L7.88186 18.9675C8.56736 19.653 9.27269 19.9972 9.99785 20ZM9.7769 11.6762C9.04041 11.6762 8.67217 11.3788 8.67217 10.784V10.7245C8.67217 10.3732 8.77131 10.0786 8.9696 9.84069C9.16788 9.60275 9.42282 9.3733 9.73441 9.15236C10.0913 8.90875 10.3633 8.7048 10.5502 8.5405C10.7372 8.37621 10.8306 8.16943 10.8306 7.92015C10.8306 7.68221 10.7386 7.48393 10.5545 7.3253C10.3703 7.16667 10.1395 7.08736 9.86188 7.08736C9.72025 7.08736 9.58712 7.11002 9.46248 7.15534C9.33784 7.20066 9.22029 7.26723 9.10981 7.35504C8.99934 7.44285 8.89595 7.55758 8.79964 7.69921L8.69766 7.83517C8.59569 7.97114 8.47672 8.07312 8.34075 8.1411C8.20478 8.20908 8.04615 8.24308 7.86487 8.24308C7.62126 8.24308 7.41447 8.16093 7.24451 7.99664C7.07456 7.83234 6.98958 7.63122 6.98958 7.39328C6.98958 7.30264 6.99949 7.21482 7.01932 7.12985C7.03915 7.04487 7.06606 6.95989 7.10005 6.87491C7.27001 6.43868 7.61418 6.07752 8.13255 5.79142C8.65092 5.50532 9.29252 5.36227 10.0573 5.36227C10.6295 5.36227 11.1493 5.46142 11.6167 5.6597C12.0841 5.85799 12.4566 6.13842 12.7342 6.501C13.0118 6.86358 13.1506 7.29414 13.1506 7.79268C13.1506 8.29123 13.0316 8.68922 12.7937 8.98665C12.5557 9.28407 12.2073 9.57725 11.7484 9.86618C11.4935 10.0305 11.2825 10.1905 11.1153 10.3463C10.9482 10.5021 10.8448 10.682 10.8052 10.8859C10.8052 10.8973 10.8037 10.9128 10.8009 10.9327C10.7981 10.9525 10.7938 10.9709 10.7882 10.9879C10.7598 11.1862 10.6536 11.3505 10.4695 11.4808C10.2854 11.6111 10.0545 11.6762 9.7769 11.6762ZM8.91011 14.2511C9.14239 14.4494 9.42849 14.5486 9.7684 14.5486C10.1027 14.5486 10.3845 14.4494 10.614 14.2511C10.8434 14.0528 10.9581 13.7922 10.9581 13.4693C10.9581 13.1464 10.8448 12.8844 10.6182 12.6833C10.3916 12.4821 10.1083 12.3816 9.7684 12.3816C9.42849 12.3816 9.14239 12.4821 8.91011 12.6833C8.67784 12.8844 8.5617 13.1464 8.5617 13.4693C8.5617 13.7922 8.67784 14.0528 8.91011 14.2511Z" fill="#212B38"/>
</svg>
