<svg width="28" height="29" viewBox="0 0 28 29" fill="none" xmlns="http://www.w3.org/2000/svg">
<path fill-rule="evenodd" clip-rule="evenodd" d="M24.6294 16.782C24.8594 16.9141 25 17.1598 25 17.4141C25 18.1822 23.0032 21.8613 22.1139 21.8628C21.9861 21.8628 21.8569 21.8302 21.7414 21.7638L19.6307 20.5519C18.8302 21.2324 17.9036 21.7662 16.8907 22.1228V24.5432C16.8907 24.8801 16.6558 25.1451 16.2844 25.2547C15.5332 25.4112 14.7177 25.5 13.9587 25.5C13.1998 25.5 12.4272 25.4102 11.6741 25.2529C11.3413 25.1838 11.1081 24.8802 11.1081 24.5423V22.1219C10.0961 21.767 9.16996 21.2324 8.36821 20.5522L6.25754 21.7642C6.14197 21.8305 6.01295 21.8631 5.88501 21.8631C4.89653 21.8631 3 18.0475 3 17.4141C3 17.1598 3.14055 16.9141 3.37059 16.782L5.47629 15.5732C5.38151 15.0624 5.3254 14.5391 5.3254 14C5.3254 13.4609 5.38142 12.9398 5.47642 12.4264L3.37072 11.2175C3.14073 11.0855 3.00014 10.8397 3.00014 10.5855C3.00014 9.81777 4.99425 6.13643 5.88514 6.13643C6.01299 6.13643 6.1422 6.16922 6.2574 6.2357L8.37033 7.4459C9.16996 6.76668 10.0961 6.23301 11.1081 5.87633V3.45594C11.1081 3.11812 11.343 2.81463 11.6737 2.74532C12.425 2.58881 13.1998 2.5 13.9994 2.5C14.799 2.5 15.5716 2.58881 16.3247 2.74527C16.6575 2.81445 16.8907 3.11799 16.8907 3.45594V5.87633C17.9027 6.23301 18.8288 6.76668 19.6306 7.44783L21.7412 6.23584C21.8568 6.16952 21.9858 6.13687 22.1138 6.13687C23.1022 6.13687 24.9988 9.95254 24.9988 10.5859C24.9988 10.8402 24.8582 11.0859 24.6282 11.218L22.5225 12.4268C22.6173 12.9376 22.6734 13.5014 22.6734 14C22.6734 14.4986 22.6192 15.0602 22.5237 15.5732L24.6294 16.782ZM10.3852 14C10.3852 15.9815 12.0066 17.5938 13.9994 17.5938C15.9917 17.5938 17.6136 15.9815 17.6136 14C17.6136 12.0185 15.9917 10.4062 13.9994 10.4062C12.0071 10.4062 10.3852 12.0185 10.3852 14Z" fill="#B9BDC3"/>
</svg>
