<svg width="28" height="29" viewBox="0 0 28 29" fill="none" xmlns="http://www.w3.org/2000/svg">
<path fill-rule="evenodd" clip-rule="evenodd" d="M23.25 4.53125V18.9688C23.25 19.4156 22.9621 19.7895 22.5625 19.9308V22.8196C22.9609 22.9623 23.25 23.3335 23.25 23.7812V24.4688C23.25 25.0381 22.7881 25.5 22.2188 25.5H8.125C5.8468 25.5 4 23.6532 4 21.375V7.625C4 5.3468 5.8468 3.5 8.125 3.5H12.25V11.7113C12.25 12.3258 12.916 12.6438 13.3285 12.2871L15.6875 10.375L18.0465 12.248C18.4581 12.6085 19.125 12.2875 19.125 11.7113V3.5H22.2188C22.7902 3.5 23.25 3.96148 23.25 4.53125ZM8.125 22.75H20.5V20H8.125C7.36574 20 6.75 20.6157 6.75 21.375C6.75 22.1343 7.36574 22.75 8.125 22.75Z" fill="#B9BDC3"/>
</svg>
