<svg width="44" height="44" viewBox="0 0 44 44" fill="none" xmlns="http://www.w3.org/2000/svg">
<rect width="44" height="44" fill="white"/>
<path fill-rule="evenodd" clip-rule="evenodd" d="M21.9978 32C22.723 32.0028 23.4283 31.6643 24.1138 30.9845L30.9802 24.1096C31.6657 23.4298 32.007 22.7259 32.0042 21.9979C32.0013 21.2699 31.6543 20.5632 30.9632 19.8777L24.1223 13.0368C23.4368 12.3513 22.7315 12.0057 22.0063 12.0001C21.2812 11.9944 20.5759 12.3343 19.8904 13.0198L13.024 19.8862C12.3385 20.5717 11.9972 21.277 12 22.0022C12.0029 22.7273 12.3498 23.4326 13.041 24.1181L19.8819 30.9675C20.5674 31.653 21.2727 31.9972 21.9978 32ZM21.7769 23.6762C21.0404 23.6762 20.6722 23.3788 20.6722 22.784V22.7245C20.6722 22.3732 20.7713 22.0786 20.9696 21.8407C21.1679 21.6027 21.4228 21.3733 21.7344 21.1524C22.0913 20.9087 22.3633 20.7048 22.5502 20.5405C22.7372 20.3762 22.8306 20.1694 22.8306 19.9202C22.8306 19.6822 22.7386 19.4839 22.5545 19.3253C22.3703 19.1667 22.1395 19.0874 21.8619 19.0874C21.7203 19.0874 21.5871 19.11 21.4625 19.1553C21.3378 19.2007 21.2203 19.2672 21.1098 19.355C20.9993 19.4429 20.8959 19.5576 20.7996 19.6992L20.6977 19.8352C20.5957 19.9711 20.4767 20.0731 20.3407 20.1411C20.2048 20.2091 20.0462 20.2431 19.8649 20.2431C19.6213 20.2431 19.4145 20.1609 19.2445 19.9966C19.0746 19.8323 18.9896 19.6312 18.9896 19.3933C18.9896 19.3026 18.9995 19.2148 19.0193 19.1298C19.0391 19.0449 19.0661 18.9599 19.1 18.8749C19.27 18.4387 19.6142 18.0775 20.1326 17.7914C20.6509 17.5053 21.2925 17.3623 22.0573 17.3623C22.6295 17.3623 23.1493 17.4614 23.6167 17.6597C24.0841 17.858 24.4566 18.1384 24.7342 18.501C25.0118 18.8636 25.1506 19.2941 25.1506 19.7927C25.1506 20.2912 25.0316 20.6892 24.7937 20.9866C24.5557 21.2841 24.2073 21.5773 23.7484 21.8662C23.4935 22.0305 23.2825 22.1905 23.1153 22.3463C22.9482 22.5021 22.8448 22.682 22.8052 22.8859C22.8052 22.8973 22.8037 22.9128 22.8009 22.9327C22.7981 22.9525 22.7938 22.9709 22.7882 22.9879C22.7598 23.1862 22.6536 23.3505 22.4695 23.4808C22.2854 23.6111 22.0545 23.6762 21.7769 23.6762ZM20.9101 26.2511C21.1424 26.4494 21.4285 26.5486 21.7684 26.5486C22.1027 26.5486 22.3845 26.4494 22.614 26.2511C22.8434 26.0528 22.9581 25.7922 22.9581 25.4693C22.9581 25.1464 22.8448 24.8844 22.6182 24.6833C22.3916 24.4821 22.1083 24.3816 21.7684 24.3816C21.4285 24.3816 21.1424 24.4821 20.9101 24.6833C20.6778 24.8844 20.5617 25.1464 20.5617 25.4693C20.5617 25.7922 20.6778 26.0528 20.9101 26.2511Z" fill="#212B38"/>
</svg>
