<svg width="29" height="29" viewBox="0 0 29 29" fill="none" xmlns="http://www.w3.org/2000/svg">
<g clip-path="url(#clip0_1168_14893)">
<path d="M5.91761 18.4875L8.20928 16.6656C8.75928 16.2302 9.08011 15.5656 9.08011 14.8667V11.8875C12.5405 10.7646 16.2874 10.7531 19.7593 11.8875V14.8781C19.7593 15.5771 20.0801 16.2417 20.6301 16.6771L22.9103 18.4875C23.827 19.2094 25.1332 19.1406 25.9582 18.3156L27.3562 16.9177C28.2728 16.0011 28.2728 14.4771 27.2989 13.6177C19.9541 7.13231 8.88532 7.13231 1.54053 13.6177C0.566569 14.4771 0.566569 16.0011 1.48324 16.9177L2.88115 18.3156C3.69469 19.1406 5.00094 19.2094 5.91761 18.4875V18.4875Z" fill="white"/>
</g>
<defs>
<clipPath id="clip0_1168_14893">
<rect width="27.5" height="27.5" fill="white" transform="translate(0.75 0.75)"/>
</clipPath>
</defs>
</svg>
