<svg width="40" height="41" viewBox="0 0 40 41" fill="none" xmlns="http://www.w3.org/2000/svg">
<path d="M19.9997 23.8333C22.7663 23.8333 24.9997 21.5999 24.9997 18.8333V8.83325C24.9997 6.06659 22.7663 3.83325 19.9997 3.83325C17.233 3.83325 14.9997 6.06659 14.9997 8.83325V18.8333C14.9997 21.5999 17.233 23.8333 19.9997 23.8333ZM29.8496 18.8333C29.033 18.8333 28.3497 19.4333 28.2163 20.2499C27.533 24.1666 24.1163 27.1666 19.9997 27.1666C15.883 27.1666 12.4663 24.1666 11.783 20.2499C11.6497 19.4333 10.9663 18.8333 10.1497 18.8333C9.13299 18.8333 8.33299 19.7333 8.48299 20.7333C9.29965 25.7333 13.2997 29.6499 18.333 30.3666V33.8333C18.333 34.7499 19.083 35.4999 19.9997 35.4999C20.9163 35.4999 21.6663 34.7499 21.6663 33.8333V30.3666C26.6996 29.6499 30.6996 25.7333 31.5163 20.7333C31.683 19.7333 30.8663 18.8333 29.8496 18.8333Z" fill="white"/>
</svg>
