<svg width="40" height="41" viewBox="0 0 40 41" fill="none" xmlns="http://www.w3.org/2000/svg">
<path d="M15 20.4999C15 23.2665 17.2333 25.4999 20 25.4999C22.7667 25.4999 25 23.2665 25 20.4999C25 17.7332 22.7667 15.4999 20 15.4999C17.2333 15.4999 15 17.7332 15 20.4999Z" fill="white"/>
<path d="M13.333 15.4999C13.333 14.5833 12.583 13.8333 11.6663 13.8333H8.48301C10.783 9.84992 15.083 7.16658 19.9997 7.16658C25.8163 7.16658 30.7497 10.8999 32.5663 16.0999C32.7997 16.7499 33.4497 17.1666 34.133 17.1666C35.2663 17.1666 36.0997 16.0499 35.733 14.9833C33.4497 8.48325 27.2663 3.83325 19.9997 3.83325C14.5497 3.83325 9.69967 6.46659 6.66634 10.5166V8.83325C6.66634 7.91658 5.91634 7.16658 4.99967 7.16658C4.08301 7.16658 3.33301 7.91658 3.33301 8.83325V15.4999C3.33301 16.4166 4.08301 17.1666 4.99967 17.1666H11.6663C12.583 17.1666 13.333 16.4166 13.333 15.4999Z" fill="white"/>
<path d="M26.6663 25.4999C26.6663 26.4166 27.4163 27.1666 28.3329 27.1666H31.5163C29.2163 31.1499 24.9163 33.8333 19.9996 33.8333C14.1829 33.8333 9.24959 30.0999 7.43293 24.8999C7.19959 24.2499 6.54959 23.8333 5.86626 23.8333C4.73293 23.8333 3.89959 24.9499 4.26626 26.0166C6.54959 32.5166 12.7329 37.1666 19.9996 37.1666C25.4496 37.1666 30.2996 34.5333 33.3329 30.4833V32.1666C33.3329 33.0833 34.0829 33.8333 34.9996 33.8333C35.9163 33.8333 36.6663 33.0833 36.6663 32.1666V25.4999C36.6663 24.5833 35.9163 23.8333 34.9996 23.8333H28.3329C27.4163 23.8333 26.6663 24.5833 26.6663 25.4999Z" fill="white"/>
</svg>
