<svg width="40" height="41" viewBox="0 0 40 41" fill="none" xmlns="http://www.w3.org/2000/svg">
<path fill-rule="evenodd" clip-rule="evenodd" d="M32.2751 28.2605C34.4714 20.2847 29.2709 12.0468 20.7277 9.81944C11.0799 7.30139 -2.61329 13.8401 0.432915 22.2275C1.44271 25.0014 3.38656 25.6504 7.05337 25.7015L7.28268 25.7056C9.22022 25.7282 9.76509 25.851 9.92918 26.1089C10.1964 26.5347 10.2006 27.2124 9.89973 29.0774C9.75667 29.9577 9.71039 30.2647 9.65569 30.7458C9.3212 33.6754 9.8303 35.96 11.8015 38.0277C17.9612 44.4825 29.7948 37.2641 32.2751 28.2605ZM4.40056 20.8599C2.86694 16.6427 12.6809 11.9567 19.6379 13.7705C25.9849 15.4267 29.7906 21.4557 28.2106 27.198C26.4477 33.6017 18.1506 38.6623 14.8856 35.2394C13.8758 34.1831 13.6254 33.053 13.8379 31.1962C13.8821 30.799 13.9242 30.5247 14.0567 29.7099C14.5174 26.85 14.5111 25.5439 13.5139 23.9655C12.2643 21.9859 10.7791 21.6522 7.33527 21.6092L7.11228 21.6051C5.08427 21.5785 4.60252 21.4168 4.39846 20.8599H4.40056Z" fill="white"/>
<path d="M10.7752 20.1619C10.0777 20.1619 9.40888 19.8923 8.91572 19.4124C8.42256 18.9325 8.14551 18.2816 8.14551 17.6029C8.14551 16.9242 8.42256 16.2734 8.91572 15.7935C9.40888 15.3136 10.0777 15.0439 10.7752 15.0439C11.4726 15.0439 12.1415 15.3136 12.6346 15.7935C13.1278 16.2734 13.4048 16.9242 13.4048 17.6029C13.4048 18.2816 13.1278 18.9325 12.6346 19.4124C12.1415 19.8923 11.4726 20.1619 10.7752 20.1619Z" fill="white"/>
<path d="M18.6638 20.1619C17.9664 20.1619 17.2976 19.8923 16.8044 19.4124C16.3112 18.9325 16.0342 18.2816 16.0342 17.6029C16.0342 16.9242 16.3112 16.2734 16.8044 15.7935C17.2976 15.3136 17.9664 15.0439 18.6638 15.0439C19.3613 15.0439 20.0301 15.3136 20.5233 15.7935C21.0165 16.2734 21.2935 16.9242 21.2935 17.6029C21.2935 18.2816 21.0165 18.9325 20.5233 19.4124C20.0301 19.8923 19.3613 20.1619 18.6638 20.1619Z" fill="white"/>
<path d="M23.9226 26.3034C23.2252 26.3034 22.5563 26.0338 22.0632 25.5539C21.57 25.074 21.293 24.4231 21.293 23.7444C21.293 23.0657 21.57 22.4148 22.0632 21.9349C22.5563 21.455 23.2252 21.1854 23.9226 21.1854C24.6201 21.1854 25.2889 21.455 25.7821 21.9349C26.2753 22.4148 26.5523 23.0657 26.5523 23.7444C26.5523 24.4231 26.2753 25.074 25.7821 25.5539C25.2889 26.0338 24.6201 26.3034 23.9226 26.3034Z" fill="white"/>
<path d="M20.7674 33.4686C20.0699 33.4686 19.4011 33.199 18.9079 32.7191C18.4147 32.2392 18.1377 31.5883 18.1377 30.9096C18.1377 30.2309 18.4147 29.58 18.9079 29.1001C19.4011 28.6202 20.0699 28.3506 20.7674 28.3506C21.4648 28.3506 22.1337 28.6202 22.6268 29.1001C23.12 29.58 23.397 30.2309 23.397 30.9096C23.397 31.5883 23.12 32.2392 22.6268 32.7191C22.1337 33.199 21.4648 33.4686 20.7674 33.4686Z" fill="white"/>
<path d="M28.384 7.07006C28.6334 6.94001 28.9073 6.86027 29.1891 6.83562C29.471 6.81096 29.755 6.84189 30.0243 6.92656C30.2936 7.01123 30.5425 7.1479 30.7563 7.32839C30.97 7.50887 31.1441 7.72947 31.2682 7.97696L39.8788 25.1734C40.0226 25.4825 40.04 25.8333 39.9275 26.1544C39.815 26.4755 39.581 26.7429 39.2732 26.9023C38.9653 27.0616 38.6067 27.1008 38.2702 27.012C37.9337 26.9232 37.6446 26.713 37.4616 26.4242L27.5572 9.90337C27.4148 9.66571 27.3232 9.40252 27.2879 9.12958C27.2526 8.85663 27.2743 8.57956 27.3517 8.31498C27.4291 8.05039 27.5606 7.80374 27.7384 7.58982C27.9161 7.3759 28.1364 7.19911 28.3861 7.07006H28.384Z" fill="white"/>
<path fill-rule="evenodd" clip-rule="evenodd" d="M24.5277 6.82235C25.5522 8.69553 27.2752 9.21961 28.9413 8.35774C30.6054 7.49792 31.125 5.81308 30.1005 3.9399C28.9308 1.79445 26.4231 -0.150385 24.7612 0.707388C23.0992 1.56721 23.3559 4.67689 24.5298 6.82235H24.5277ZM26.3853 5.86017C26.0128 5.13226 25.7844 4.34263 25.7121 3.53251C25.6808 3.19384 25.6935 2.85268 25.75 2.5171L25.7878 2.53553C25.893 2.58466 26.2191 2.73206 26.6356 3.05552C27.271 3.54889 27.9021 4.27564 28.2429 4.90003C28.7246 5.78033 28.5879 6.22252 27.9526 6.55212C27.3214 6.87967 26.867 6.74046 26.3853 5.86221V5.86017Z" fill="white"/>
</svg>
