<svg width="40" height="40" viewBox="0 0 40 40" fill="none" xmlns="http://www.w3.org/2000/svg">
<path d="M20.7163 6.83331C20.4457 6.71621 20.1488 6.67303 19.856 6.70816C19.5632 6.7433 19.2849 6.8555 19.0497 7.03331L11.083 13.3333H4.99967C4.55765 13.3333 4.13372 13.5089 3.82116 13.8215C3.5086 14.134 3.33301 14.5579 3.33301 15V25C3.33301 25.442 3.5086 25.8659 3.82116 26.1785C4.13372 26.491 4.55765 26.6666 4.99967 26.6666H11.083L18.9663 32.9666C19.2596 33.2019 19.6237 33.3311 19.9997 33.3333C20.2486 33.3374 20.4948 33.2802 20.7163 33.1666C21 33.0316 21.2396 32.8191 21.4077 32.5537C21.5758 32.2883 21.6655 31.9808 21.6663 31.6666V8.33331C21.6655 8.01916 21.5758 7.71167 21.4077 7.44627C21.2396 7.18087 21 6.96839 20.7163 6.83331V6.83331ZM18.333 28.2L12.6997 23.7C12.4064 23.4647 12.0423 23.3355 11.6663 23.3333H6.66634V16.6666H11.6663C12.0423 16.6645 12.4064 16.5352 12.6997 16.3L18.333 11.8V28.2ZM25.233 6.81664C25.0141 6.786 24.7914 6.79877 24.5774 6.85421C24.3635 6.90966 24.1626 7.00671 23.9862 7.1398C23.8097 7.2729 23.6612 7.43944 23.5492 7.62993C23.4371 7.82041 23.3637 8.0311 23.333 8.24997C23.3024 8.46884 23.3151 8.6916 23.3706 8.90554C23.426 9.11947 23.5231 9.32039 23.6562 9.49683C23.925 9.85314 24.3243 10.0881 24.7663 10.15C27.1267 10.5137 29.2789 11.7102 30.8338 13.523C32.3886 15.3357 33.2433 17.6451 33.2433 20.0333C33.2433 22.4215 32.3886 24.7309 30.8338 26.5437C29.2789 28.3564 27.1267 29.5529 24.7663 29.9166C24.3243 29.9476 23.9127 30.1529 23.622 30.4873C23.3313 30.8217 23.1854 31.2579 23.2163 31.7C23.2473 32.142 23.4526 32.5536 23.787 32.8443C24.1214 33.135 24.5576 33.2809 24.9997 33.25H25.233C28.3877 32.7727 31.2667 31.18 33.3473 28.7611C35.4278 26.3421 36.572 23.2573 36.572 20.0666C36.572 16.876 35.4278 13.7912 33.3473 11.3722C31.2667 8.95324 28.3877 7.36055 25.233 6.88331V6.81664ZM24.4663 23.1166C24.0243 23.1874 23.6285 23.4308 23.3659 23.7934C23.1034 24.1559 22.9956 24.6079 23.0663 25.05C23.1371 25.492 23.3805 25.8878 23.7431 26.1504C24.1056 26.4129 24.5576 26.5207 24.9997 26.45C25.1805 26.4479 25.3602 26.4199 25.533 26.3666C26.8314 25.9062 27.9552 25.0549 28.7501 23.9298C29.5449 22.8046 29.9716 21.4609 29.9716 20.0833C29.9716 18.7057 29.5449 17.362 28.7501 16.2368C27.9552 15.1117 26.8314 14.2604 25.533 13.8C25.1131 13.6585 24.6542 13.6897 24.2572 13.8866C23.8603 14.0835 23.5578 14.43 23.4163 14.85C23.2749 15.2699 23.3061 15.7288 23.503 16.1258C23.6999 16.5227 24.0464 16.8252 24.4663 16.9666C25.0988 17.2065 25.6433 17.6331 26.0275 18.1898C26.4117 18.7465 26.6175 19.4069 26.6175 20.0833C26.6175 20.7597 26.4117 21.4201 26.0275 21.9768C25.6433 22.5335 25.0988 22.9601 24.4663 23.2V23.1166Z" fill="white"/>
</svg>
