<svg width="308" height="196" viewBox="0 0 308 196" fill="none" xmlns="http://www.w3.org/2000/svg">
<path d="M90.6732 73.6648C88.5818 73.0539 87.0005 74.2247 88.7858 75.9555C90.5712 77.6863 93.5298 79.6207 91.8975 80.8424C90.2651 82.0641 75.013 78.8062 64.4028 74.3774C53.7926 69.9487 52.9254 67.8616 49.3546 70.7632C45.7839 73.6648 47.5183 77.4827 56.2921 81.4533C65.0659 85.4239 83.3277 89.4963 90.3672 88.7836C97.4066 88.0709 99.4981 87.2055 98.0698 85.1184C96.6415 83.0313 95.7743 81.046 98.2738 81.2496C100.773 81.4532 109.19 82.2168 111.435 80.9442C113.679 79.6716 113.322 79.468 109.394 78.6535C105.466 77.839 94.499 74.7338 90.6732 73.6648Z" fill="url(#paint0_linear_3343_16871)"/>
<path d="M78.6855 69.6942C75.0128 68.3706 71.0339 66.1308 69.7076 68.3706C68.4324 70.6104 74.8087 73.7157 78.9406 73.512C83.0724 73.3084 83.9396 71.5776 78.6855 69.6942Z" fill="url(#paint1_linear_3343_16871)"/>
<path d="M120.311 71.8831C118.015 71.7813 118.066 77.3808 122.351 78.1444C134.9 80.3843 151.427 76.6682 162.292 73.3593C164.027 72.7994 164.282 75.4464 161.17 77.6863C158.058 79.9261 152.957 81.1987 156.171 83.0822C159.385 84.9657 176.32 79.2134 181.574 74.2247C186.828 69.236 182.186 68.4215 179.228 68.2688C176.269 68.1161 175.453 65.2654 180.299 62.771C185.196 60.3276 197.949 53.4554 196.928 51.2665C195.908 49.0775 179.687 59.1059 163.108 64.2982C139.44 71.8831 131.074 72.2394 120.311 71.8831Z" fill="url(#paint2_linear_3343_16871)"/>
<path d="M184.023 134.395C185.553 133.376 187.084 133.835 186.166 135.718C185.247 137.602 183.309 139.892 184.941 140.452C186.574 141.012 197.949 134.293 205.243 127.879C212.538 121.465 212.691 119.581 216.364 120.956C220.037 122.33 219.628 125.843 213.66 131.391C207.692 136.94 194.123 145.085 188.308 146.408C182.442 147.732 180.554 147.579 181.115 145.543C181.677 143.507 181.881 141.674 179.942 142.489C178.004 143.303 171.423 146.205 169.281 145.746C167.139 145.288 167.343 145.034 170.301 143.354C173.26 141.674 181.269 136.278 184.023 134.395Z" fill="url(#paint3_linear_3343_16871)"/>
<path d="M192.593 128.031C195.194 125.995 197.796 123.094 199.428 124.57C201.061 126.046 196.776 130.22 193.409 131.137C189.991 132.053 188.869 130.933 192.593 128.031Z" fill="#FAE1ED"/>
<path d="M159.742 140.911C161.578 140.249 163.006 144.678 159.793 146.459C150.305 151.601 136.073 153.077 126.432 153.281C124.901 153.331 125.411 155.52 128.523 156.488C131.635 157.455 136.073 157.098 134.032 159.491C131.992 161.884 116.842 161.782 111.282 159.186C105.721 156.589 109.19 154.706 111.537 153.79C113.883 152.873 113.781 150.379 109.19 149.666C104.599 149.005 92.5097 146.917 92.7647 144.881C93.0198 142.845 108.731 146.561 123.422 146.307C144.387 146.052 151.223 144.067 159.742 140.911Z" fill="url(#paint4_linear_3343_16871)"/>
<path d="M199.683 60.4293C200.958 60.1748 206.008 61.9056 198.714 66.3852C195.398 68.4214 191.47 71.0176 189.991 69.4904C188.512 67.9633 192.491 61.8547 199.683 60.4293Z" fill="url(#paint5_linear_3343_16871)"/>
<path d="M229.269 109.451C233.299 106.804 237.634 109.706 230.952 115C227.891 117.392 223.147 121.108 221.464 119.734C219.832 118.359 223.198 113.473 229.269 109.451Z" fill="url(#paint6_linear_3343_16871)"/>
<path d="M222.026 70.2033C222.128 68.1162 219.22 69.3379 214.833 72.2395C210.446 75.192 203.662 83.8459 179.738 88.1728C155.763 92.4997 152.957 91.5834 152.294 96.7758C151.631 101.968 166.475 97.8957 176.728 94.7905C186.981 91.6853 193.46 91.5834 192.949 95.5031C192.439 99.4228 178.207 108.84 148.876 108.026C119.545 107.211 106.793 97.8448 99.9061 103.037C93.0197 108.229 110.159 119.938 133.93 120.345C157.701 120.752 173.157 118.309 192.337 106.651C211.517 94.9941 213.252 88.2237 211.16 86.7475C209.12 85.2712 205.753 90.5653 201.774 91.1762C197.795 91.7871 197.847 90.209 200.346 88.1728C202.846 86.1366 221.873 73.9193 222.026 70.2033Z" fill="url(#paint7_linear_3343_16871)"/>
<path d="M64.5565 107.822C61.904 107.008 58.6393 112.302 62.8222 115.611C67.0051 118.869 90.0619 123.705 91.1841 125.588C92.3063 127.472 91.9492 128.999 87.3073 129.406C82.6653 129.813 76.544 127.981 78.6865 131.951C80.8289 135.922 102.049 140.453 110.67 138.518C119.24 136.584 114.955 132.868 111.945 130.882C108.936 128.897 109.905 125.385 116.485 125.843C123.117 126.301 140.664 127.115 140.97 124.214C141.277 121.312 118.067 121.77 97.6114 116.782C77.1562 111.793 75.9829 111.284 64.5565 107.822Z" fill="url(#paint8_linear_3343_16871)"/>
<path d="M76.3395 102.375C77.6148 103.343 77.4617 106.193 72.8708 105.073C68.2798 103.953 57.5166 100.237 57.7206 97.6412C57.9247 95.045 69.249 97.0303 76.3395 102.375Z" fill="url(#paint9_linear_3343_16871)"/>
<path d="M93.7853 60.4804C89.3984 61.9058 102.967 67.6581 115.261 68.2689C126.891 68.8798 130.513 66.2836 129.238 65.0619C127.962 63.8402 121.28 65.1128 111.588 63.4838C101.896 61.8549 96.9479 59.4114 93.7853 60.4804Z" fill="url(#paint10_linear_3343_16871)"/>
<path d="M135.512 63.8401C133.727 64.5527 133.931 67.0471 136.226 66.6907C138.522 66.3344 145.408 65.2145 147.397 63.891C149.387 62.5674 147.857 61.0912 145.153 61.4475C142.398 61.8547 138.114 62.771 135.512 63.8401Z" fill="#F47D56"/>
<path d="M140.766 147.986C138.674 150.226 105.67 131.748 101.283 126.504C101.181 126.352 101.079 126.199 100.977 126.097C98.2227 121.516 95.1111 76.719 99.7531 76.3626C106.231 75.9045 138.98 87.4091 139.898 94.3322C140 95.1467 140.204 97.4883 140.358 100.746C141.225 114.745 142.5 146.103 140.766 147.986Z" fill="url(#paint11_linear_3343_16871)"/>
<path d="M140.765 147.986C138.674 150.226 105.67 131.748 101.283 126.504C103.579 125.13 106.333 123.501 109.649 121.516C124.799 112.607 138.572 96.572 138.572 96.572L140.357 100.695C141.225 114.745 142.5 146.103 140.765 147.986Z" fill="url(#paint12_linear_3343_16871)"/>
<path d="M140.562 148.19C140.562 148.19 160.915 146.357 172.597 144.321C184.278 142.285 190.501 141.929 191.471 139.536C192.44 137.144 192.644 118.919 191.879 105.684C191.113 92.4997 190.807 87.1037 188.206 85.4239C185.604 83.744 138.062 90.0053 137.909 91.5834C137.756 93.1615 136.838 95.2486 137.45 105.684C138.062 116.12 138.419 136.584 138.726 139.485C138.981 142.387 138.522 148.037 140.562 148.19Z" fill="url(#paint13_linear_3343_16871)"/>
<path d="M99.7529 76.3627C99.7529 76.3627 113.832 80.9442 122.045 84.6602C130.257 88.3763 136.94 91.1761 137.909 91.5834C138.827 91.9906 163.414 89.2417 170.811 88.8345C178.207 88.4272 187.644 87.5109 188.868 86.0856C190.093 84.6602 155.865 73.4102 151.121 72.3921C146.377 71.2722 101.895 73.6647 99.7529 76.3627Z" fill="url(#paint14_linear_3343_16871)"/>
<path d="M183.87 91.5323C183.87 91.5323 160.354 94.3321 152.651 94.6376C141.99 95.0957 141.99 96.8265 141.99 97.4374C141.99 98.0482 143.265 130.271 142.959 134.954C142.653 139.638 143.265 143.048 143.265 143.048C143.265 143.048 181.574 138.06 183.717 137.602C185.859 137.143 188.155 136.38 188.155 135.871C188.155 135.413 188.308 115.305 188.002 105.022C187.696 94.8412 188.461 91.2269 183.87 91.5323Z" fill="#BF2726"/>
<path d="M182.186 93.823C182.186 93.823 160.762 96.3683 153.722 96.6737C144.03 97.081 144.03 98.659 144.03 99.219C144.03 99.779 145.204 129.151 144.897 133.427C144.642 137.703 145.152 140.809 145.152 140.809C145.152 140.809 180.044 136.278 181.982 135.82C183.921 135.413 186.063 134.7 186.063 134.242C186.063 133.784 186.216 115.509 185.91 106.142C185.706 96.8265 186.369 93.5685 182.186 93.823Z" fill="url(#paint15_linear_3343_16871)"/>
<path d="M177.697 111.283C177.697 111.283 192.592 109.044 193.561 109.145C194.53 109.247 196.111 110.164 196.367 112.862C196.673 115.509 196.775 119.123 195.142 119.988C192.541 121.414 180.145 122.381 178.972 122.635C176.88 123.144 175.707 119.581 175.605 116.934C175.503 114.287 175.962 111.945 177.697 111.283Z" fill="#D02527"/>
<path d="M177.747 110.724C177.747 110.724 192.643 108.484 193.612 108.586C194.581 108.687 196.162 109.604 196.417 112.302C196.672 115 196.264 117.749 194.632 118.614C192.03 120.039 180.196 121.057 179.023 121.312C176.931 121.821 175.758 119.021 175.656 116.374C175.554 113.778 176.013 111.436 177.747 110.724Z" fill="url(#paint16_linear_3343_16871)"/>
<path d="M177.289 111.385C176.421 111.843 177.034 112.2 179.941 111.793C182.798 111.385 193.153 109.909 193.816 109.705C194.479 109.553 194.377 108.84 193.561 108.84C192.745 108.84 185.195 109.909 183.257 110.113C181.267 110.367 177.952 111.029 177.289 111.385Z" fill="url(#paint17_linear_3343_16871)"/>
<path d="M209.936 122.737C209.936 122.737 209.069 124.825 208.507 124.825C208.303 124.825 207.436 123.705 206.263 122.228C204.172 119.581 201.009 115.763 198.917 114.847C195.653 113.422 192.541 114.44 191.572 117.24C190.552 120.039 192.796 123.705 194.327 125.639C195.092 126.606 196.061 127.879 196.877 128.948C197.693 130.068 198.356 130.933 198.356 130.933C198.356 130.933 198.356 132.46 197.234 132.613C196.112 132.766 195.806 131.951 195.806 131.951L192.082 126.657C192.082 126.657 185.145 116.629 192.49 112.913C200.958 108.586 209.936 122.737 209.936 122.737Z" fill="#F1AD66"/>
<path d="M206.722 120.192L206.314 122.228C204.222 119.581 201.06 115.763 198.968 114.847C195.704 113.422 192.592 114.44 191.623 117.24C190.603 120.039 192.847 123.705 194.377 125.639C195.143 126.606 196.112 127.879 196.928 128.948L196.622 129.151C196.622 129.151 195.551 129.304 193.765 126.759C191.98 124.214 190.45 121.058 190.705 118.258C190.909 115.458 193.561 112.76 197.744 113.524C201.876 114.338 206.722 120.192 206.722 120.192Z" fill="#E59745"/>
<path d="M212.69 148.343C207.64 150.684 204.478 149.31 203.151 148.445C202.641 148.088 202.386 147.834 202.386 147.834C202.386 147.834 192.337 133.784 192.49 131.544C192.49 131.544 194.071 127.421 200.142 123.399C206.212 119.378 208.711 118.461 210.293 119.276C211.874 120.09 223.351 132.358 223.964 133.835C224.066 134.089 224.168 134.395 224.168 134.751C224.525 138.569 219.118 145.39 212.69 148.343Z" fill="url(#paint18_linear_3343_16871)"/>
<path d="M212.69 148.343C207.64 150.684 204.477 149.31 203.151 148.444C203.1 147.986 202.998 144.576 209.323 138.62C216.108 132.206 222.892 132.562 223.963 134.344C224.014 134.446 224.116 134.598 224.167 134.7C224.524 138.569 219.117 145.39 212.69 148.343Z" fill="#E59745"/>
<path d="M193.204 131.799C193.204 131.799 194.683 128.49 195.601 128.286C196.519 128.083 206.109 139.485 205.752 140.351C205.446 141.216 203.661 144.423 203.1 145.39C202.59 146.357 203.049 147.732 202.029 146.408C201.059 145.085 192.898 133.275 193.204 131.799Z" fill="#EFA453"/>
<path d="M209.476 120.345C208.099 120.192 208.864 121.923 212.282 125.639C215.699 129.304 218.25 132.053 219.372 131.239C220.494 130.424 218.046 128.083 215.24 125.232C212.435 122.381 210.751 120.498 209.476 120.345Z" fill="#FDC07C"/>
<path d="M206.314 128.388C206.314 128.388 206.926 126.352 205.192 126.046C203.458 125.741 202.692 127.064 202.896 128.337C203.101 129.61 205.09 129.559 205.09 129.559C205.09 129.559 206.722 134.496 207.436 134.598C208.151 134.7 211.16 132.206 211.16 131.646C211.16 131.086 206.314 128.388 206.314 128.388Z" fill="#E59745"/>
<path d="M206.518 128.184C206.518 128.184 207.13 126.301 205.447 125.995C203.815 125.741 203.1 126.912 203.305 128.133C203.509 129.355 205.345 129.253 205.345 129.253C205.345 129.253 206.875 133.886 207.538 133.937C208.202 133.987 211.007 131.697 211.007 131.188C211.007 130.679 206.518 128.184 206.518 128.184Z" fill="url(#paint19_linear_3343_16871)"/>
<path d="M158.466 96.1139C158.466 96.1139 158.976 123.246 159.129 130.424C159.282 137.602 158.721 138.976 159.282 138.823C159.843 138.671 160.251 139.332 160.506 138.518C160.761 137.703 160.659 95.9103 159.894 95.5031C159.129 95.0958 158.619 95.554 158.466 96.1139Z" fill="#BF2726"/>
<path d="M173.106 93.976C173.106 93.976 173.617 121.108 173.77 128.286C173.923 135.515 173.361 136.838 173.923 136.685C174.433 136.533 174.892 137.195 175.147 136.38C175.402 135.566 175.3 93.7724 174.535 93.3651C173.719 92.9579 173.259 93.416 173.106 93.976Z" fill="#BF2726"/>
<path d="M158.467 94.3322L158.313 89.6998L160.303 89.5471V94.5358C160.252 94.6376 158.671 95.4012 158.467 94.3322Z" fill="#BF2726"/>
<path d="M173.208 93.2123L173.055 88.6818L175.044 88.5291L174.993 93.4668C174.993 93.4668 173.412 94.2813 173.208 93.2123Z" fill="#BF2726"/>
<path d="M158.976 145.441L158.823 140.045L160.813 139.892V145.746C160.813 145.746 159.18 146.714 158.976 145.441Z" fill="#BF2726"/>
<path d="M173.412 143.354L173.259 138.06L175.248 137.907L175.197 143.66C175.197 143.66 173.616 144.627 173.412 143.354Z" fill="#BF2726"/>
<path d="M158.262 89.8526L117.046 73.6138L118.423 73.4102L160.354 89.6489L158.262 89.8526Z" fill="#BF2726"/>
<path d="M173.056 88.6307L132.196 72.4938L133.829 72.4429L175.096 88.4271L173.056 88.6307Z" fill="#BF2726"/>
<path d="M97.4062 90.158L137.501 108.993L137.45 111.233L97.4062 92.6014V90.158Z" fill="#BF2726"/>
<path d="M98.4775 111.029L138.164 129.864L138.113 132.155L98.5796 113.523L98.4775 111.029Z" fill="#BF2726"/>
<path d="M190.654 114.032C190.654 114.032 191.164 113.727 192.082 114.542C193.001 115.356 192.082 116.425 192.082 116.425L196.52 114.745C196.52 114.745 196.52 112.862 196.367 111.742C196.214 110.622 195.551 110.316 195.551 110.316L190.246 112.709L190.654 114.032Z" fill="url(#paint20_linear_3343_16871)"/>
<path d="M190.858 114.083C190.858 114.083 191.572 113.88 192.133 114.643C192.695 115.407 192.337 115.967 192.337 115.967L192.133 116.221C192.133 116.221 192.388 116.323 192.797 115.916C193.154 115.509 193.307 114.491 192.44 113.829C191.572 113.167 191.062 113.371 190.603 113.727C190.144 114.083 190.195 114.745 190.195 114.745L190.858 114.083Z" fill="#BA2026"/>
<path d="M157.854 170.741C155.457 168.247 154.13 162.393 157.548 159.593C160.966 156.793 165.506 159.949 167.24 162.342C169.433 165.345 170.352 169.672 167.138 172.319C163.924 174.915 160.252 173.235 157.854 170.741ZM165.506 170.639C167.444 169.061 166.577 165.651 165.251 163.818C164.23 162.342 161.17 160 159.129 161.68C157.089 163.36 158.109 167.381 159.588 168.909C161.068 170.436 163.567 172.268 165.506 170.639Z" fill="url(#paint21_linear_3343_16871)"/>
<path d="M168.158 163.513L185.909 150.786C186.42 150.43 186.522 149.717 186.164 149.208L186.011 148.954C185.654 148.445 184.94 148.292 184.43 148.699L166.27 161.68C165.862 161.985 165.658 162.494 165.862 162.953C166.015 163.36 166.474 163.767 167.597 163.716C167.75 163.716 168.005 163.614 168.158 163.513Z" fill="url(#paint22_linear_3343_16871)"/>
<path d="M184.941 150.634L187.695 154.401L186.42 155.266L185.451 154.044L182.135 156.335L183.155 157.76L181.829 158.626L179.278 154.808L184.941 150.634Z" fill="url(#paint23_linear_3343_16871)"/>
<path d="M246.919 169.825C244.165 166.771 241.818 168.705 238.401 171.505C234.83 174.457 233.453 176.901 236.768 180.21C239.523 182.958 242.533 180.82 244.93 178.581C248.654 175.017 249.674 172.879 246.919 169.825ZM243.298 176.595C242.022 177.817 240.645 179.293 239.217 177.766C237.84 176.239 238.605 175.068 240.492 173.49C242.328 171.963 243.451 170.487 244.93 172.116C246.409 173.745 245.287 174.712 243.298 176.595Z" fill="url(#paint24_linear_3343_16871)"/>
<path d="M237.789 172.37L222.282 155.215C221.822 154.706 221.873 153.942 222.384 153.484L222.639 153.281C223.149 152.822 223.914 152.873 224.373 153.382L240.237 170.894C240.594 171.301 240.645 171.861 240.39 172.319C240.135 172.726 239.574 173.032 238.452 172.726C238.197 172.675 237.993 172.523 237.789 172.37Z" fill="url(#paint25_linear_3343_16871)"/>
<path d="M223.352 155.317L220.343 157.964C219.985 158.269 219.934 158.829 220.292 159.186C220.598 159.491 221.108 159.542 221.465 159.237L222.128 158.677L224.321 161.069C224.678 161.476 225.342 161.527 225.801 161.222L227.586 159.898L223.352 155.317Z" fill="url(#paint26_linear_3343_16871)"/>
<path d="M192.695 160.815C192.695 160.815 193.46 160.356 194.072 160.865C194.684 161.375 194.072 161.934 194.072 161.934L189.94 168.45C189.94 168.45 190.297 169.061 190.501 168.705C190.705 168.349 194.531 162.189 194.531 162.189C194.531 162.189 195.245 162.342 195.245 163.156C195.296 163.971 187.39 176.697 187.39 176.697L183.717 174.508L192.695 160.815Z" fill="url(#paint27_linear_3343_16871)"/>
<path d="M179.075 174.661L175.861 180.26C175.147 181.533 175.555 183.111 176.779 183.875L182.135 187.234C183.411 188.049 185.043 187.642 185.859 186.42L189.379 180.871C190.195 179.599 189.787 177.919 188.512 177.104L182.799 173.694C181.523 172.879 179.789 173.337 179.075 174.661ZM179.789 178.326L185.451 181.889C185.808 182.093 185.91 182.551 185.655 182.907L184.635 184.485C184.431 184.842 183.972 184.893 183.615 184.689L178.055 181.126C177.749 180.922 177.647 180.515 177.8 180.158L178.718 178.58C178.973 178.224 179.432 178.122 179.789 178.326Z" fill="url(#paint28_linear_3343_16871)"/>
<path d="M209.834 184.129C206.722 182.907 203.203 184.485 201.978 187.591C200.754 190.696 202.336 194.208 205.447 195.43C208.559 196.652 212.079 195.074 213.303 191.968C214.527 188.863 212.946 185.351 209.834 184.129ZM206.263 193.292C204.325 192.528 203.356 190.339 204.07 188.405C204.835 186.471 207.029 185.503 208.967 186.216C210.905 186.98 211.875 189.169 211.16 191.103C210.446 193.088 208.253 194.056 206.263 193.292Z" fill="url(#paint29_linear_3343_16871)"/>
<path d="M206.773 184.791L208.61 161.731C208.661 160.967 209.375 160.407 210.14 160.509C210.854 160.611 211.364 161.222 211.313 161.985L209.477 184.842L206.773 184.791Z" fill="url(#paint30_linear_3343_16871)"/>
<path d="M209.12 170.996L205.294 170.639C204.631 170.588 204.121 169.977 204.223 169.316L204.325 167.89C204.376 167.432 204.733 167.076 205.192 167.127L206.416 167.178L206.467 166.312L205.294 166.21C204.835 166.16 204.478 165.752 204.529 165.294L204.682 163.563C204.733 163.105 205.09 162.749 205.549 162.8L209.477 163.003V166.669H209.273L209.12 168.145V170.996Z" fill="url(#paint31_linear_3343_16871)"/>
<path d="M136.685 11.4077C137.756 10.9495 138.368 9.77872 138.113 8.65881C137.807 7.28437 138.062 5.50269 140.867 4.48458C145.867 2.65199 149.896 6.36807 148.264 12.4767C146.632 18.5853 139.184 16.7527 136.634 19.7561C135.103 21.5887 134.848 24.3885 134.899 26.3229C134.95 27.5446 135.766 28.5627 136.94 28.8682L140.051 29.6318C141.633 30.039 143.163 28.97 143.418 27.3919C143.673 25.6611 144.336 23.7268 146.275 23.1159C150.049 21.9451 156.63 17.3127 156.426 10.5423C156.222 3.721 149.488 -0.758655 143.367 0.106733C137.246 0.972122 134.797 5.14635 133.726 7.5898C133.573 7.89523 133.471 8.25157 133.369 8.557C132.808 10.4914 134.797 12.2222 136.685 11.4077Z" fill="url(#paint32_linear_3343_16871)"/>
<path d="M138.215 41.3399C140.694 41.3399 142.703 39.3343 142.703 36.8603C142.703 34.3862 140.694 32.3806 138.215 32.3806C135.735 32.3806 133.726 34.3862 133.726 36.8603C133.726 39.3343 135.735 41.3399 138.215 41.3399Z" fill="url(#paint33_linear_3343_16871)"/>
<path d="M107.302 22.1488C107.863 21.487 107.914 20.4689 107.353 19.8071C106.69 18.9927 106.231 17.6691 107.863 15.9893C110.669 13.0877 114.699 14.3094 115.617 19.0436C116.535 23.7778 110.822 24.9995 110.057 27.9011C109.598 29.6828 110.363 31.6681 111.026 32.9916C111.434 33.8061 112.352 34.2642 113.27 34.0606L115.668 33.5516C116.892 33.297 117.606 32.0753 117.198 30.9045C116.79 29.6318 116.637 28.0538 117.759 26.9848C119.953 24.8977 122.962 19.5526 120.565 14.9711C118.167 10.3388 111.944 10.237 108.016 12.8331C104.088 15.4802 103.884 18.3818 103.935 20.418C103.935 20.6725 103.986 20.9271 104.037 21.1816C104.293 22.8105 106.282 23.3705 107.302 22.1488Z" fill="url(#paint34_linear_3343_16871)"/>
<path d="M116.842 42.5618C118.729 42.5618 120.259 41.0348 120.259 39.1511C120.259 37.2675 118.729 35.7405 116.842 35.7405C114.954 35.7405 113.424 37.2675 113.424 39.1511C113.424 41.0348 114.954 42.5618 116.842 42.5618Z" fill="url(#paint35_linear_3343_16871)"/>
<defs>
<linearGradient id="paint0_linear_3343_16871" x1="96.0428" y1="83.9127" x2="55.9112" y2="73.1168" gradientUnits="userSpaceOnUse">
<stop stop-color="#F1CCDE"/>
<stop offset="0.9946" stop-color="#FBECF4"/>
</linearGradient>
<linearGradient id="paint1_linear_3343_16871" x1="86.2981" y1="72.8435" x2="73.2337" y2="70.1442" gradientUnits="userSpaceOnUse">
<stop stop-color="#F1CCDE"/>
<stop offset="0.9946" stop-color="#FBECF4"/>
</linearGradient>
<linearGradient id="paint2_linear_3343_16871" x1="188.373" y1="56.5105" x2="153.644" y2="72.4274" gradientUnits="userSpaceOnUse">
<stop stop-color="#F1CCDE"/>
<stop offset="0.9946" stop-color="#FBECF4"/>
</linearGradient>
<linearGradient id="paint3_linear_3343_16871" x1="193.195" y1="147.389" x2="193.409" y2="120.418" gradientUnits="userSpaceOnUse">
<stop stop-color="#F1CCDE"/>
<stop offset="0.9946" stop-color="#FBECF4"/>
</linearGradient>
<linearGradient id="paint4_linear_3343_16871" x1="91.8241" y1="151.39" x2="130.62" y2="151.12" gradientUnits="userSpaceOnUse">
<stop stop-color="#F1CCDE"/>
<stop offset="0.9946" stop-color="#FBECF4"/>
</linearGradient>
<linearGradient id="paint5_linear_3343_16871" x1="196.693" y1="69.1173" x2="195.459" y2="61.0525" gradientUnits="userSpaceOnUse">
<stop stop-color="#F1CCDE"/>
<stop offset="0.9946" stop-color="#FBECF4"/>
</linearGradient>
<linearGradient id="paint6_linear_3343_16871" x1="228.837" y1="118.33" x2="226.486" y2="109.869" gradientUnits="userSpaceOnUse">
<stop stop-color="#F1CCDE"/>
<stop offset="0.9946" stop-color="#FBECF4"/>
</linearGradient>
<linearGradient id="paint7_linear_3343_16871" x1="209.277" y1="58.0508" x2="186.68" y2="75.0336" gradientUnits="userSpaceOnUse">
<stop stop-color="#F1CCDE"/>
<stop offset="0.9946" stop-color="#FBECF4"/>
</linearGradient>
<linearGradient id="paint8_linear_3343_16871" x1="71.2639" y1="121.269" x2="135.914" y2="133.686" gradientUnits="userSpaceOnUse">
<stop stop-color="#FDC07C"/>
<stop offset="0.9946" stop-color="#F1AD66"/>
</linearGradient>
<linearGradient id="paint9_linear_3343_16871" x1="58.2419" y1="102" x2="76.5687" y2="99.7731" gradientUnits="userSpaceOnUse">
<stop stop-color="#FDC07C"/>
<stop offset="0.9946" stop-color="#F1AD66"/>
</linearGradient>
<linearGradient id="paint10_linear_3343_16871" x1="153.392" y1="64.6482" x2="118.368" y2="64.3782" gradientUnits="userSpaceOnUse">
<stop stop-color="#8B1D56"/>
<stop offset="1" stop-color="#C84799"/>
</linearGradient>
<linearGradient id="paint11_linear_3343_16871" x1="123.35" y1="144.312" x2="114.284" y2="54.5404" gradientUnits="userSpaceOnUse">
<stop stop-color="#C53027"/>
<stop offset="0.9946" stop-color="#D95530"/>
</linearGradient>
<linearGradient id="paint12_linear_3343_16871" x1="128.659" y1="130.958" x2="115.319" y2="101.192" gradientUnits="userSpaceOnUse">
<stop stop-color="#BF2726"/>
<stop offset="0.9892" stop-color="#D95530"/>
</linearGradient>
<linearGradient id="paint13_linear_3343_16871" x1="161.242" y1="144.338" x2="164.797" y2="114.591" gradientUnits="userSpaceOnUse">
<stop stop-color="#C53027"/>
<stop offset="0.9946" stop-color="#DA6330"/>
</linearGradient>
<linearGradient id="paint14_linear_3343_16871" x1="197.552" y1="121.818" x2="141.416" y2="78.6908" gradientUnits="userSpaceOnUse">
<stop stop-color="#C53027"/>
<stop offset="0.9946" stop-color="#D95530"/>
</linearGradient>
<linearGradient id="paint15_linear_3343_16871" x1="157.019" y1="159.016" x2="164.772" y2="118.097" gradientUnits="userSpaceOnUse">
<stop stop-color="#C53027"/>
<stop offset="0.9946" stop-color="#DA6330"/>
</linearGradient>
<linearGradient id="paint16_linear_3343_16871" x1="186.633" y1="102.758" x2="185.3" y2="131.434" gradientUnits="userSpaceOnUse">
<stop stop-color="#C53027"/>
<stop offset="0.9946" stop-color="#D95530"/>
</linearGradient>
<linearGradient id="paint17_linear_3343_16871" x1="184.674" y1="115.149" x2="185.561" y2="110.465" gradientUnits="userSpaceOnUse">
<stop stop-color="#C53027"/>
<stop offset="0.9946" stop-color="#DA6330"/>
</linearGradient>
<linearGradient id="paint18_linear_3343_16871" x1="217.807" y1="146.749" x2="206.947" y2="132.656" gradientUnits="userSpaceOnUse">
<stop stop-color="#E59745"/>
<stop offset="0.9946" stop-color="#F1AD66"/>
</linearGradient>
<linearGradient id="paint19_linear_3343_16871" x1="204.223" y1="124.222" x2="207.52" y2="130.43" gradientUnits="userSpaceOnUse">
<stop stop-color="#2C3178"/>
<stop offset="0.9946" stop-color="#1C194E"/>
</linearGradient>
<linearGradient id="paint20_linear_3343_16871" x1="193.703" y1="107.679" x2="193.088" y2="120.912" gradientUnits="userSpaceOnUse">
<stop stop-color="#C53027"/>
<stop offset="0.9946" stop-color="#D95530"/>
</linearGradient>
<linearGradient id="paint21_linear_3343_16871" x1="160.478" y1="168.531" x2="185.139" y2="134.41" gradientUnits="userSpaceOnUse">
<stop stop-color="#8B1D56"/>
<stop offset="1" stop-color="#C84799"/>
</linearGradient>
<linearGradient id="paint22_linear_3343_16871" x1="159.393" y1="167.064" x2="193.562" y2="144.759" gradientUnits="userSpaceOnUse">
<stop stop-color="#8B1D56"/>
<stop offset="1" stop-color="#C84799"/>
</linearGradient>
<linearGradient id="paint23_linear_3343_16871" x1="160.845" y1="169.289" x2="195.014" y2="146.984" gradientUnits="userSpaceOnUse">
<stop stop-color="#8B1D56"/>
<stop offset="1" stop-color="#C84799"/>
</linearGradient>
<linearGradient id="paint24_linear_3343_16871" x1="228.17" y1="156.024" x2="242.269" y2="175.756" gradientUnits="userSpaceOnUse">
<stop stop-color="#F3704A"/>
<stop offset="1" stop-color="#F7915D"/>
</linearGradient>
<linearGradient id="paint25_linear_3343_16871" x1="223.347" y1="152" x2="242.396" y2="178.662" gradientUnits="userSpaceOnUse">
<stop stop-color="#F3704A"/>
<stop offset="1" stop-color="#F7915D"/>
</linearGradient>
<linearGradient id="paint26_linear_3343_16871" x1="220.134" y1="154.302" x2="239.142" y2="180.906" gradientUnits="userSpaceOnUse">
<stop stop-color="#F3704A"/>
<stop offset="1" stop-color="#F7915D"/>
</linearGradient>
<linearGradient id="paint27_linear_3343_16871" x1="177.197" y1="185.15" x2="196.899" y2="159.947" gradientUnits="userSpaceOnUse">
<stop stop-color="#FDC07C"/>
<stop offset="0.9946" stop-color="#F1AD66"/>
</linearGradient>
<linearGradient id="paint28_linear_3343_16871" x1="178.205" y1="185.938" x2="197.907" y2="160.735" gradientUnits="userSpaceOnUse">
<stop stop-color="#FDC07C"/>
<stop offset="0.9946" stop-color="#F1AD66"/>
</linearGradient>
<linearGradient id="paint29_linear_3343_16871" x1="204.729" y1="241.455" x2="203.055" y2="271.225" gradientUnits="userSpaceOnUse">
<stop stop-color="#292A69"/>
<stop offset="0.9946" stop-color="#1C194E"/>
</linearGradient>
<linearGradient id="paint30_linear_3343_16871" x1="224.611" y1="320.829" x2="227.733" y2="350.482" gradientUnits="userSpaceOnUse">
<stop stop-color="#292A69"/>
<stop offset="0.9946" stop-color="#1C194E"/>
</linearGradient>
<linearGradient id="paint31_linear_3343_16871" x1="222.998" y1="319.003" x2="226.079" y2="348.265" gradientUnits="userSpaceOnUse">
<stop stop-color="#292A69"/>
<stop offset="0.9946" stop-color="#1C194E"/>
</linearGradient>
<linearGradient id="paint32_linear_3343_16871" x1="143.885" y1="25.3089" x2="145.511" y2="-1.01179" gradientUnits="userSpaceOnUse">
<stop stop-color="#292A69"/>
<stop offset="0.9946" stop-color="#1C194E"/>
</linearGradient>
<linearGradient id="paint33_linear_3343_16871" x1="138.94" y1="25.0664" x2="140.544" y2="-0.892805" gradientUnits="userSpaceOnUse">
<stop stop-color="#292A69"/>
<stop offset="0.9946" stop-color="#1C194E"/>
</linearGradient>
<linearGradient id="paint34_linear_3343_16871" x1="275.888" y1="213.674" x2="302.212" y2="245.008" gradientUnits="userSpaceOnUse">
<stop stop-color="#FDC07C"/>
<stop offset="0.9946" stop-color="#F1AD66"/>
</linearGradient>
<linearGradient id="paint35_linear_3343_16871" x1="268.965" y1="219.491" x2="295.289" y2="250.825" gradientUnits="userSpaceOnUse">
<stop stop-color="#FDC07C"/>
<stop offset="0.9946" stop-color="#F1AD66"/>
</linearGradient>
</defs>
</svg>
