<svg width="15" height="16" viewBox="0 0 15 16" fill="none" xmlns="http://www.w3.org/2000/svg">
<path opacity="0.3" d="M5.6875 3.33325L3.125 6.06659V9.93325L5.6875 12.6666H9.3125L11.875 9.93325V6.06659L9.3125 3.33325H5.6875ZM7.5 11.3333C7.15625 11.3333 6.875 11.0333 6.875 10.6666C6.875 10.2999 7.15625 9.99992 7.5 9.99992C7.84375 9.99992 8.125 10.2999 8.125 10.6666C8.125 11.0333 7.84375 11.3333 7.5 11.3333ZM8.125 9.33325H6.875V4.66659H8.125V9.33325Z" fill="#F32924"/>
<path d="M9.83125 2H5.16875L1.875 5.51333V10.4867L5.16875 14H9.83125L13.125 10.4867V5.51333L9.83125 2ZM11.875 9.93333L9.3125 12.6667H5.6875L3.125 9.93333V6.06667L5.6875 3.33333H9.3125L11.875 6.06667V9.93333Z" fill="#F32924"/>
<path d="M7.5 11.3333C7.84518 11.3333 8.125 11.0349 8.125 10.6667C8.125 10.2985 7.84518 10 7.5 10C7.15482 10 6.875 10.2985 6.875 10.6667C6.875 11.0349 7.15482 11.3333 7.5 11.3333Z" fill="#F32924"/>
<path d="M6.875 4.66675H8.125V9.33341H6.875V4.66675Z" fill="#F32924"/>
</svg>
