<svg width="36" height="28" viewBox="0 0 36 28" fill="none" xmlns="http://www.w3.org/2000/svg">
<path d="M35.5101 13.6301C35.4174 13.493 35.2922 13.381 35.1456 13.3042C34.999 13.2274 34.8356 13.1882 34.6701 13.1901C33.8622 13.0779 33.1209 12.6807 32.5801 12.0701C31.5394 10.9326 30.6549 9.66136 29.9501 8.2901L32.8301 3.7901C33.0049 3.52932 33.1119 3.22912 33.1416 2.91661C33.1713 2.60409 33.1227 2.28911 33.0001 2.0001C32.8774 1.73716 32.6919 1.50844 32.46 1.33406C32.228 1.15968 31.9568 1.04499 31.6701 1.0001C29.8387 0.753277 27.9746 1.01266 26.2801 1.7501C25.309 2.17785 24.3952 2.72544 23.5601 3.3801C21.9245 2.64668 20.1828 2.17751 18.4001 1.9901C11.3101 1.3001 4.83012 5.9001 4.00012 12.0001C3.67666 11.8546 3.38696 11.6434 3.1494 11.3801C2.91184 11.1167 2.7316 10.8068 2.62012 10.4701C2.54882 10.2392 2.52447 9.99638 2.54852 9.75594C2.57256 9.51549 2.64451 9.28229 2.76012 9.0701C2.86379 8.89194 3.01196 8.74377 3.19012 8.6401C3.31159 8.56656 3.41739 8.46981 3.50147 8.35538C3.58556 8.24095 3.64628 8.11109 3.68017 7.97319C3.71407 7.8353 3.72047 7.69208 3.69901 7.55171C3.67755 7.41134 3.62866 7.27657 3.55512 7.1551C3.48158 7.03362 3.38483 6.92783 3.27041 6.84374C3.15598 6.75966 3.02611 6.69894 2.88821 6.66504C2.75032 6.63115 2.6071 6.62475 2.46673 6.64621C2.32636 6.66766 2.19159 6.71656 2.07012 6.7901C1.58604 7.08722 1.18656 7.50392 0.91012 8.0001C0.653103 8.46576 0.491536 8.978 0.434873 9.50686C0.37821 10.0357 0.427589 10.5706 0.58012 11.0801C0.767869 11.6975 1.07922 12.2704 1.49523 12.7637C1.91125 13.2571 2.42326 13.6608 3.00012 13.9501L3.92012 14.4101C4.03505 16.8444 4.65483 19.2281 5.74012 21.4101L5.91012 21.7901C6.77746 23.6245 7.88373 25.336 9.20012 26.8801C9.29383 26.9868 9.40918 27.0723 9.5385 27.1309C9.66782 27.1895 9.80814 27.2199 9.95012 27.2201H14.4701C14.6339 27.2193 14.795 27.1782 14.9392 27.1006C15.0834 27.023 15.2063 26.9111 15.2972 26.7748C15.388 26.6385 15.444 26.482 15.4602 26.319C15.4764 26.1561 15.4524 25.9916 15.3901 25.8401L15.0001 24.9401L16.1801 25.0701C17.5102 25.2016 18.85 25.2016 20.1801 25.0701C20.5501 25.6701 20.9501 26.2701 21.3901 26.8601C21.4822 26.9861 21.6025 27.0889 21.7415 27.1601C21.8804 27.2313 22.034 27.2689 22.1901 27.2701H26.5301C26.6952 27.27 26.8576 27.229 27.003 27.1508C27.1483 27.0726 27.2721 26.9597 27.3632 26.822C27.4543 26.6844 27.5099 26.5263 27.5251 26.362C27.5402 26.1976 27.5145 26.0321 27.4501 25.8801C27.2801 25.4801 27.1101 25.0501 26.9801 24.6801C26.8001 24.1501 26.6601 23.6801 26.5501 23.2301C27.6545 22.6339 28.6681 21.883 29.5601 21.0001C30.5565 21.1205 31.5637 21.1205 32.5601 21.0001C32.733 20.974 32.896 20.903 33.0328 20.7942C33.1697 20.6854 33.2757 20.5426 33.3401 20.3801L35.6001 14.5701C35.6637 14.4181 35.6888 14.2528 35.6731 14.0888C35.6574 13.9248 35.6014 13.7672 35.5101 13.6301ZM31.7301 19.0701C30.9451 19.1148 30.1575 19.0779 29.3801 18.9601C28.4948 18.8106 27.6401 18.5166 26.8501 18.0901C26.6161 17.9741 26.3461 17.9542 26.0976 18.0347C25.8492 18.1152 25.6421 18.2897 25.5206 18.5209C25.3992 18.7521 25.373 19.0216 25.4476 19.2719C25.5223 19.5221 25.6918 19.7332 25.9201 19.8601C26.3381 20.0792 26.7688 20.2729 27.2101 20.4401C26.6648 20.9057 26.0594 21.2958 25.4101 21.6001L24.3501 22.0801C24.3501 22.0801 24.8401 24.2701 25.1701 25.2401H22.7901C22.5501 24.9001 21.3401 22.8801 21.3401 22.8801L20.6701 22.9701C19.2628 23.173 17.8367 23.2133 16.4201 23.0901C15.7601 23.0301 14.6601 22.8901 13.8001 22.7401L12.2501 22.4701C12.2501 22.4701 12.8801 24.9001 13.0001 25.2101H10.4201C9.36623 23.9197 8.47302 22.506 7.76012 21.0001L7.58012 20.6101C6.28082 18.109 5.73213 15.2857 6.00012 12.4801C6.54012 7.2901 12.1201 3.3701 18.1901 3.9401C19.9559 4.13804 21.6743 4.63869 23.2701 5.4201L23.8901 5.7101L24.3901 5.2401C25.1688 4.54427 26.0489 3.97104 27.0001 3.5401C28.2587 2.99423 29.6335 2.77083 31.0001 2.8901L27.6201 8.1801L27.8701 8.6801C28.7435 10.4392 29.8575 12.0682 31.1801 13.5201C31.7944 14.1205 32.5218 14.5929 33.3201 14.9101L31.7301 19.0701Z" fill="#1B8F46"/>
</svg>
